<svg xmlns="http://www.w3.org/2000/svg" xmlns:xlink="http://www.w3.org/1999/xlink"><symbol fill="none" viewBox="0 0 373 360" id="404" xmlns="http://www.w3.org/2000/svg"><path fill="#333" d="M198.3 327.6c-27.9-3.8-61.5-.5-75.1 7.2-13.8 7.8-2.2 17.1 25.6 20.9 28 3.7 61.6.5 75.2-7.3 13.8-7.8 2.1-17-25.7-20.8z"/><path fill="#686868" d="M123 339.6c13.8-7.7 47.4-11 75.2-7.2 17.2 2.3 28.2 6.7 30.9 11.6 3.7-6.6-8.1-13.4-30.9-16.4-27.9-3.8-61.5-.5-75.2 7.2-5.2 3-6.8 6.3-5 9.3.8-1.5 2.6-3 5-4.5z"/><path fill="#F2F2F2" d="m310.7 222.5-79.2 1 .7 23.6-69.2 14 17.6 9.4-12.9 18.8 45.8 16.4-16.6 21.6-22.6 30h-3.9l18.7-30.7 11.5-18.6-45.8-14 9.4-18.8-35.2-17.5 69.2-20-21.8-13.4L49 226 20 46.8l305-29.2-14.2 205zm23.6-183.8-14 165 21-161.5-7-3.5zM10.6 57.4l-4.7 7 20 61-15.3-68zM280.3 0 88 29.3l194.7-17.6L280.3 0zM24.7 207.3l3.5 9.4h8.2l-2-9.4h-9.7zm-3.6-69.1H0l21 58.6h11.5L21 138.2zm315.5 1.2h8.2l3.5-9.4h-9.8l-1.9 9.4zM352 60.9l-11.4 58.6H352l21-58.6h-21.1z"/><path fill="#686868" d="m106.5 175.8-38.2.1v-15.8c7-13.5 16.4-28.7 29.8-49.2h26l.1 50.1h9.9v14.8h-9.9v13h-17.7v-13zm-22-14.2H107l-.2-37.1h-.9a463 463 0 0 0-21.3 36.2v1zm60.4-12.2c0-25.7 12.3-40.8 32.1-40.8s32.1 15 32.3 40.7c0 25.8-12.1 41.1-32 41.3-20 0-32.3-15.3-32.4-41.2zm45.4 0c0-17.4-5.3-26.2-13.3-26.2s-13.1 8.8-13.1 26.2c0 17.6 5.1 26.7 13.2 26.6 8.1 0 13.3-9 13.2-26.6zm68.1 26-38.2.2v-15.8c7-13.5 16.4-28.7 29.8-49.2h26l.1 50h9.9v14.8h-10v13h-17.7v-13zm-22-14h22.4l-.2-37.1h-.9c-6.8 10.4-12.6 19.9-21.3 36.2v.9z"/><path fill="#BDBDBD" d="M126.8 76.5c0 7-4.1 11.3-10.6 11.3-6.4 0-10.5-4.3-10.5-11.3 0-7 4-11.4 10.5-11.4 6.5.1 10.6 4.5 10.6 11.4zm-15.8.1c0 4.2 2 7 5.2 7s5.3-2.8 5.3-7-2-7-5.3-7-5.2 2.7-5.2 7zm20-10.8h5.2v17.4h5.5V65.8h5.2v17.4h5.5V65.8h5.1v21.6H131V65.8zm45.6 7.9h-.2l-8.9 13.6h-5V65.7h5.2v13.6h.3l8.9-13.6h5v21.6h-5.3V73.7zM196 87h-9.1V65.6h14.8v4.2H192v3.6h3.9c4.7 0 7.8 2.7 7.8 6.7 0 4.3-3.2 7-7.7 7zm-1.3-4c2.4 0 3.6-1 3.6-2.9 0-1.8-1.4-2.9-3.6-2.9H192V83l2.7.2zm18.7-8.5 7-9h5.6L217.8 76l8.8 11h-6l-7-8.6h-.7V87h-5.2V65.5h5.2v9l.5.1zm28.1 7.6h-7.1l-1.6 5h-5.1l7.2-21.6h6.3l7.3 21.4H243l-1.4-4.8zm-6.2-3.8h5.2l-2.5-8.2h-.2l-2.5 8.2z"/><path fill="#F2F2F2" d="M86.4 345.4c9.3 5 1.5 11.1-17.4 13.6-19 2.4-41.8.3-51-4.7-9.3-5-1.5-11.1 17.4-13.6 19-2.5 41.8-.3 51 4.7z"/><path fill="#FFAE5E" d="m90.3 347.5-.6-2.8.1.7v-.7c-.3-.8-.8-1.7-1.5-2.5l-.4-.4-1.1-.9-1.3-.8c-.6-.2-1.3-.7-1.8-1l-1.6-.6-3.2-1c-.5-.3-1.4-.4-2-.7-1.5-.3-3.7-.8-4.3-.8l-2.2-.3a63.7 63.7 0 0 0-4.7-.6c-1.4-.1-6.7-.6-12.8-.5l-5.3.2-2.6.3-5.1.6a44 44 0 0 0-8.6 1.6 55.8 55.8 0 0 0-7.7 3c-1 .6-1.3 1-1.9 1.5 0 0-.4.3-.7.8l-.5.7-.3.7-.3.7-.7 2.8c-.3 1.6.7 3.4 3.6 5 8.6 4.8 29.9 6.8 47.6 4.5 13.5-1.8 20.9-5.6 20-9.5z"/><path fill="#FF924D" d="M84.6 340c8 4.6 1.3 10-15.2 12.3-16.4 2.2-36.3.2-44.3-4.3-8-4.6-1.3-10.1 15.1-12.3 16.5-2.3 36.4-.3 44.4 4.3zm-8.1 1c-5.9-3.2-20.3-4.6-32.2-3.1-12 1.6-16.9 5.6-11 8.9 5.9 3.3 20.3 4.7 32.2 3.2 11.8-1.7 16.7-5.7 11-9zm-15.3-59.3c-.3-1.2-1.3-1.8-1.6-2-.4-.3-1.2-.6-3-.8a13 13 0 0 0-3.7 0c-1.8.2-2.7.8-3 .9l-.9.8-.4 1c-.2.3 0 .5.5.9 1.6.8 5.3 1.3 8.5.8 2.6-.2 3.9-1 3.6-1.6z"/><path fill="#FFAE5E" d="M30.8 343.4a123 123 0 0 0 1.8-6.2 123 123 0 0 0 2.7-9.3 123.3 123.3 0 0 0 2.7-9.2l1.8-6.2a124.3 124.3 0 0 0 2.7-9.3 123.2 123.2 0 0 0 1.7-6.2 124.4 124.4 0 0 0 1.8-6.2c.2-1 .6-2.1 1-3a123 123 0 0 0 1.7-6.2c-.1.3 0 .5.6.9 1.5.8 5.2 1.3 8.4.8 2.4-.3 3.8-1 3.5-1.7a122.2 122.2 0 0 0 1.8 6.2 123 123 0 0 0 1.7 6.2 122.3 122.3 0 0 0 1.8 6.2 122.2 122.2 0 0 0 1.8 6.2 124 124 0 0 0 1.7 6.2l1.8 6.2.8 3a123 123 0 0 0 1.8 6.3l1.7 6.2.8 3 1.8 6.2c.7 2.7-4.2 5.3-13.4 6.5-12 1.6-26.2.2-32.1-3.2-1.9-1-2.6-2.2-2.4-3.4z"/><path fill="#fff" d="M69.4 310.3c.5 1.6-2.5 3.1-8 3.8-7.2 1-15.9.1-19.5-1.9-1.2-.7-1.7-1.4-1.4-2a124.7 124.7 0 0 0 1.7-6.3l1-3 1.1-4.2c0 .4.3 1 1 1.5 2.7 1.5 9 2.1 14.3 1.4 4-.6 6.2-1.8 5.8-3a122 122 0 0 0 1.8 6.3l.8 3 1.4 4.3zm7 24.7c.7 2.3-4 4.6-12.1 5.8-10.7 1.4-23.7.3-28.9-2.8-1.7-1-2.4-2.1-2-3.2a124.4 124.4 0 0 0 1.7-6.2l1-3 1-4.2c-.2.8.4 1.7 1.8 2.6a46.7 46.7 0 0 0 23.7 2.3c6.7-1 10.5-2.8 9.9-4.8l3.9 13.5z"/><path fill="#F2F2F2" d="M314.1 340.7c18.9 2.5 26.8 8.6 17.5 13.6s-32.1 7.1-51 4.7c-19-2.5-26.8-8.6-17.5-13.6s32.1-7.2 51-4.7z"/><path fill="#FFAE5E" d="m259.2 347.5.6-2.8-.1.7.1-.7c.2-.8.7-1.7 1.4-2.5l.5-.4 1-.9 1.3-.8c.6-.2 1.3-.7 1.8-1l1.6-.6 3.2-1 2.1-.7a32 32 0 0 1 4.2-.8l2.3-.3a63.6 63.6 0 0 1 4.7-.6c1.4-.1 6.6-.6 12.7-.5l5.3.2 2.6.3 5.2.6a44 44 0 0 1 8.5 1.6 55.8 55.8 0 0 1 7.8 3c.9.6 1.3 1 1.8 1.5 0 0 .4.3.7.8.3.2.3.3.5.7l.4.7.2.7.7 2.8c.4 1.6-.7 3.4-3.5 5-8.7 4.8-30 6.8-47.6 4.5-13.5-1.8-21-5.6-20-9.5z"/><path fill="#FF924D" d="M309.3 335.7c16.4 2.2 23.2 7.7 15.1 12.3-8 4.5-27.9 6.4-44.3 4.3-16.4-2.2-23.2-7.7-15.1-12.3 8-4.6 27.9-6.6 44.3-4.3zm-36.2 5.4c-5.9 3.2-1 7.2 11 8.9 12 1.6 26.3.2 32.1-3.2 5.9-3.3 1-7.3-11-9-11.8-1.4-26.3 0-32.1 3.3zm15.2-59.4c.4-1.2 1.3-1.8 1.7-2 .3-.3 1.1-.6 2.9-.8a13 13 0 0 1 3.7 0c1.8.2 2.7.8 3 .9l1 .8.4 1c.1.3-.1.5-.6.9-1.5.8-5.3 1.3-8.5.8-2.5-.2-3.8-1-3.6-1.6z"/><path fill="#FFAE5E" d="M318.7 343.4a122.2 122.2 0 0 1-1.8-6.2 30 30 0 0 0-1-3 122 122 0 0 1-1.7-6.3 123.3 123.3 0 0 1-1.7-6.2 30.3 30.3 0 0 0-1-3 123.3 123.3 0 0 1-1.7-6.2 123.3 123.3 0 0 1-1.8-6.2 30.3 30.3 0 0 0-1-3 123.6 123.6 0 0 1-1.7-6.3 123.3 123.3 0 0 1-1.7-6.2 30 30 0 0 0-1-3 123.3 123.3 0 0 1-1.7-6.2c0 .3-.2.5-.6.9-1.6.8-5.3 1.3-8.5.8-2.3-.3-3.7-1-3.5-1.7a123.3 123.3 0 0 1-1.7 6.2 123.3 123.3 0 0 1-1.8 6.2 123.3 123.3 0 0 1-1.8 6.2 123.3 123.3 0 0 1-1.7 6.2 123 123 0 0 1-1.8 6.2 122.3 122.3 0 0 1-1.7 6.2l-.9 3a123.3 123.3 0 0 1-1.7 6.3 122.3 122.3 0 0 1-1.8 6.2l-.8 3a123.3 123.3 0 0 1-1.8 6.2c-.7 2.7 4.3 5.3 13.4 6.5 12 1.6 26.3.2 32.1-3.2 2-1 2.6-2.2 2.4-3.4z"/><path fill="#fff" d="M280.1 310.3c-.5 1.6 2.6 3.1 8 3.8 7.2 1 16 .1 19.6-1.9 1.1-.7 1.6-1.4 1.4-2a122.5 122.5 0 0 1-1.8-6.3 30.3 30.3 0 0 0-1-3l-1.1-4.2c.1.4-.2 1-1 1.5-2.6 1.5-9 2.1-14.2 1.4-4-.6-6.3-1.8-6-3a123 123 0 0 1-1.7 6.3l-.8 3-1.4 4.3zm-7 24.7c-.6 2.3 4 4.6 12.2 5.8 10.6 1.4 23.7.3 28.8-2.8 1.8-1 2.5-2.1 2.1-3.2a122.3 122.3 0 0 1-1.7-6.2 30 30 0 0 0-1-3l-1.1-4.2c.2.8-.4 1.7-1.8 2.6a46.7 46.7 0 0 1-23.7 2.3c-6.7-1-10.4-2.8-9.8-4.8l-4 13.5z"/></symbol><symbol viewBox="0 0 14 14" id="account" xmlns="http://www.w3.org/2000/svg"><path d="M7 0a3.5 3.5 0 1 1 0 7 3.5 3.5 0 0 1 0-7zm0 8.75c3.867 0 7 1.566 7 3.5V14H0v-1.75c0-1.934 3.132-3.5 7-3.5z"/></symbol><symbol viewBox="0 0 63 63" id="advantages-discount" xmlns="http://www.w3.org/2000/svg"><path fill-rule="evenodd" clip-rule="evenodd" d="m15.43 29.56 1.83.49.49-1.83.83-3.11L45.32 9.67 57.6 30.95 30.87 46.38l-3.12-.83-1.83-.49-.49 1.83L24.6 50l-7.37 4.26L4.94 32.98l7.37-4.26 3.12.84zM44.37 8.03 16.96 23.86l-.55 2.05-.5 1.82-1.82-.49-2.04-.54L4 31.34a1.89 1.89 0 0 0-.7 2.58L15.6 55.2c.51.9 1.67 1.22 2.57.7l8.05-4.65.55-2.05.49-1.82 1.83.48 2.04.55 27.42-15.83c.9-.52 1.21-1.67.69-2.58L46.96 8.72a1.89 1.89 0 0 0-2.59-.69zM24.9 43.28a.94.94 0 1 0-.95-1.63.94.94 0 0 0 .95 1.63zm-1.55-4.56a.95.95 0 1 1-1.63.94.95.95 0 0 1 1.63-.94zm-2.23-1.98a.94.94 0 1 0-.95-1.64.94.94 0 0 0 .95 1.64zm-1.55-4.57a.95.95 0 1 1-1.63.95.95.95 0 0 1 1.63-.95zm21.18-13.36a.94.94 0 1 0-1.83-.49l-5.36 20a.95.95 0 0 0 1.82.5l5.37-20.01zm-7.26 8.79a1.89 1.89 0 1 0-3.65-.98 1.89 1.89 0 0 0 3.65.98zm1.82.49a3.78 3.78 0 1 0-7.3-1.96 3.78 3.78 0 0 0 7.3 1.96zm7.8.13a1.89 1.89 0 1 1-.98 3.65 1.89 1.89 0 0 1 .97-3.65zm.48-1.83a3.78 3.78 0 1 1-1.95 7.3 3.78 3.78 0 0 1 1.95-7.3z"/></symbol><symbol viewBox="0 0 480 480" id="advantages-exchange" xmlns="http://www.w3.org/2000/svg"><path fill-rule="evenodd" clip-rule="evenodd" d="m243.274 454.96 11.383 11.383C259.713 471.398 256.061 480 249 480a7.976 7.976 0 0 1-5.657-2.343l-25-25a7.998 7.998 0 0 1 0-11.313l25-25a8 8 0 0 1 11.313 0 7.998 7.998 0 0 1 0 11.313l-11.301 11.301C351.542 437.157 439 348.607 439 240c0-44.879-14.58-87.24-42.163-122.502a8 8 0 0 1 12.603-9.857C439.245 145.744 455 191.513 455 240c0 117.743-94.395 213.219-211.726 214.96zM383.276 98.598c7.164 0 10.751-8.798 5.525-13.787-3.625-3.47-8.605-2.935-11.482.056-5.07 5.271-.91 13.731 5.957 13.731zM196 287h-24a8 8 0 0 0 0 16h24a8 8 0 0 0 0-16zm133 58a8 8 0 0 0-8-8H159c-8.822 0-16-7.178-16-16V159c0-8.822 7.178-16 16-16h41v56c0 6.028 6.432 9.891 11.753 7.065L240 191.058l28.247 15.006C273.571 208.893 280 205.023 280 199v-28a8 8 0 0 0-16 0v14.691l-20.247-10.756a8 8 0 0 0-7.507 0L216 185.691V143h105c8.822 0 16 7.178 16 16v142a8 8 0 0 0 16 0V159c0-17.645-14.355-32-32-32H159c-17.645 0-32 14.355-32 32v162c0 17.645 14.355 32 32 32h162a8 8 0 0 0 8-8zM41 240c0-108.607 87.458-197.158 195.644-198.957l-11.301 11.301C220.287 57.398 223.938 66 231 66a7.976 7.976 0 0 0 5.657-2.343l25-25a7.998 7.998 0 0 0 0-11.313l-25-25a8 8 0 0 0-11.313 0 7.998 7.998 0 0 0 0 11.313l11.383 11.383C119.473 26.779 25 122.18 25 240c0 48.486 15.754 94.256 45.56 132.36a8 8 0 1 0 12.603-9.857C55.579 327.24 41 284.879 41 240zm49.936 143.878c-2.872 3.009-3.181 8.015.434 11.474a8 8 0 0 0 11.092-11.532c-3.681-3.521-8.67-2.935-11.526.058z"/></symbol><symbol viewBox="0 0 63 63" id="advantages-payment" xmlns="http://www.w3.org/2000/svg"><path fill-rule="evenodd" clip-rule="evenodd" d="M6.3 15.6c0-2.1 1.7-3.8 3.8-3.8h40.6c2.1 0 3.8 1.7 3.8 3.8V24c1 0 1.9.8 1.9 1.9v10.4c0 1-.9 1.9-2 1.9v8.5c0 2-1.6 3.8-3.7 3.8H10.1a3.8 3.8 0 0 1-3.8-3.8V15.6zm46.3 0v8.5H41.9c-.8 0-1.5.4-1.8 1.1l-2.3 5.2a1.9 1.9 0 0 0 0 1.6l2.3 5.2c.3.6 1 1 1.8 1h10.7v8.6c0 1-.8 1.9-1.9 1.9H10.1a1.9 1.9 0 0 1-2-2v-31c0-1 1-1.9 2-1.9h40.6c1 0 1.9.9 1.9 2zM54.5 26H41.9l-2.3 5.2 2.3 5.2h12.6V26zm-6.6 5.2a1.4 1.4 0 1 1-2.9 0 1.4 1.4 0 0 1 2.9 0zm1.9 0a3.3 3.3 0 1 1-6.6 0 3.3 3.3 0 0 1 6.6 0z"/></symbol><symbol viewBox="0 0 63 63" id="advantages-shipping" xmlns="http://www.w3.org/2000/svg"><path fill-rule="evenodd" clip-rule="evenodd" d="M2.5 11.8a1 1 0 0 0-1 1V43a1 1 0 0 0 1 1h8.7l-.1.9a6.6 6.6 0 0 0 13.2 0v-1h18l-.1 1a6.6 6.6 0 0 0 13.2 0l-.1-1H61a1 1 0 0 0 1-1V28a1 1 0 0 0-.3-.7l-.1-.1L51.8 16a1 1 0 0 0-.7-.3h-10v-2.8a1 1 0 0 0-.9-1H2.5zm1 1.9h35.9v20.8h-36V13.7zm37.8 3.8h9.5l8.2 9.4H41.3v-9.4zm0 11.3h18.9v3.8h-2.8a1 1 0 0 0-1 1v3.7a1 1 0 0 0 1 1h2.8V42h-5.4a6.6 6.6 0 0 0-6-3.8A6.6 6.6 0 0 0 43 42h-1.6V28.8zm2.7 2.8a1 1 0 1 0 .1 2h2a1 1 0 1 0 0-2h-2zm14.3 2.9h1.9v1.9h-1.9v-2zM3.5 36.4h35.9V42H23.7a6.6 6.6 0 0 0-6-3.9 6.6 6.6 0 0 0-6 3.9H3.5v-2h2.8a1 1 0 1 0 0-1.9H3.5v-1.8zM17.7 40c2.6 0 4.7 2.1 4.7 4.8 0 2.6-2 4.7-4.7 4.7a4.7 4.7 0 0 1-4.7-4.7c0-2.7 2-4.8 4.7-4.8zm31.2 0c2.6 0 4.7 2.1 4.7 4.8a4.7 4.7 0 1 1-9.4 0c0-2.7 2-4.8 4.7-4.8zm-31.2 2a2.8 2.8 0 0 0-2.8 2.8c0 1.5 1.2 2.8 2.8 2.8 1.5 0 2.8-1.3 2.8-2.8 0-1.6-1.3-2.9-2.8-2.9zm31.2 0a2.8 2.8 0 0 0-2.9 2.8c0 1.5 1.3 2.8 2.9 2.8 1.5 0 2.8-1.3 2.8-2.8 0-1.6-1.3-2.9-2.8-2.9zm-31.2 1.8c.5 0 1 .4 1 1 0 .5-.5 1-1 1a1 1 0 0 1-1-1c0-.6.5-1 1-1zm31.2 0c.5 0 1 .4 1 1 0 .5-.5 1-1 1a1 1 0 0 1-1-1c0-.6.4-1 1-1z"/></symbol><symbol fill="none" viewBox="0 0 30 30" id="alphabank" xmlns="http://www.w3.org/2000/svg"><path fill="#EE2A23" d="M15 6c1.3 0 1.7.9 2 1.8l3.6 9.3s0 .2-.2.2l-1.9.8a.2.2 0 0 1-.2-.1l-.8-2.2h-5l-.8 2.2a.2.2 0 0 1-.2 0l-2-.7a.2.2 0 0 1 0-.2c0-.3 3.3-8.9 3.5-9.3.3-1 .7-1.8 2-1.8zM9.2 21.6a.2.2 0 0 0-.2.2v2c0 .1 0 .2.2.2h11.6a.2.2 0 0 0 .2-.2v-2c0-.1 0-.2-.2-.2H9.2zM15 8.8l-1.7 4.8h3.4L15 8.8z"/></symbol><symbol viewBox="0 0 10 6" id="arrow-bottom" xmlns="http://www.w3.org/2000/svg"><path d="M1.175 0 5 3.712 8.825 0 10 1.148 5 6 0 1.148 1.175 0z"/></symbol><symbol viewBox="0 0 6 10" id="arrow-left" xmlns="http://www.w3.org/2000/svg"><path d="M6 1.175 2.288 5 6 8.825 4.852 10 0 5l4.852-5L6 1.175z"/></symbol><symbol viewBox="0 0 6 10" id="arrow-right" xmlns="http://www.w3.org/2000/svg"><path d="M0 8.825 3.712 5 0 1.175 1.148 0 6 5l-4.852 5L0 8.825z"/></symbol><symbol viewBox="0 0 10 6" id="arrow-top" xmlns="http://www.w3.org/2000/svg"><path d="M8.825 6 5 2.288 1.175 6 0 4.852 5 0l5 4.852L8.825 6z"/></symbol><symbol viewBox="0 0 14 14" id="available" xmlns="http://www.w3.org/2000/svg"><path d="M7 0a7 7 0 1 1 0 14A7 7 0 0 1 7 0zm-.7 10.15 4.9-4.9-.987-.987L6.3 8.169 4.137 6.013 3.15 7l3.15 3.15z"/></symbol><symbol viewBox="0 0 16 16" id="blocks" xmlns="http://www.w3.org/2000/svg"><path d="M0 7.111h7.111V0H0v7.111zm1.778-5.333h3.555v3.555H1.778V1.778zM8.888 16H16V8.889H8.889V16zm1.779-5.333h3.555v3.555h-3.555v-3.555zM0 16h7.111V8.889H0V16zm1.778-5.333h3.555v3.555H1.778v-3.555zM8.888 0v7.111H16V0H8.889zm5.334 5.333h-3.555V1.778h3.555v3.555z"/></symbol><symbol fill="none" viewBox="0 0 18 18" id="brands" xmlns="http://www.w3.org/2000/svg"><path d="M1.45 8.455a1.8 1.8 0 0 0 0 2.541l5.554 5.553c.338.339.79.525 1.27.525.481 0 .933-.186 1.271-.525l7.37-7.37a.544.544 0 0 0 .16-.385V2.722A1.8 1.8 0 0 0 15.278.925H9.204a.544.544 0 0 0-.384.16l-7.37 7.37Zm7.326 7.325a.703.703 0 0 1-.502.207.704.704 0 0 1-.501-.207l-5.554-5.553a.71.71 0 0 1 0-1.004l7.212-7.21h5.847a.71.71 0 0 1 .71.71v5.846L8.775 15.78Z" fill="#000" stroke="#000" stroke-width=".15"/><path d="M12.868 3.659c-.393 0-.763.153-1.041.431a1.463 1.463 0 0 0-.432 1.042c0 .393.154.763.432 1.041.278.278.648.431 1.041.431.394 0 .764-.153 1.042-.43.278-.28.431-.649.431-1.042 0-.394-.153-.764-.431-1.042a1.463 1.463 0 0 0-1.042-.431Zm.379 1.851a.531.531 0 0 1-.757 0 .531.531 0 0 1 0-.757.532.532 0 0 1 .757 0 .532.532 0 0 1 0 .757Z" fill="#000" stroke="#000" stroke-width=".1"/></symbol><symbol viewBox="0 0 12 12" id="breadcrumbs-brothers" xmlns="http://www.w3.org/2000/svg"><path d="M6 0a6 6 0 1 1 0 12A6 6 0 0 1 6 0zM3 4.8l3 3 3-3H3z"/></symbol><symbol viewBox="0 0 14 11" id="burger" xmlns="http://www.w3.org/2000/svg"><path stroke="currentColor" stroke-width="1.5" stroke-linecap="round" d="M.75 1.25h12.5M.75 5.75h9.5M.75 10.25h12.5"/></symbol><symbol viewBox="0 0 18 18" id="button-minus" xmlns="http://www.w3.org/2000/svg"><path d="M13.5 9.9h-9V8.1h9v1.8zM9 0a9 9 0 1 0 0 18A9 9 0 0 0 9 0z"/></symbol><symbol viewBox="0 0 18 18" id="button-plus" xmlns="http://www.w3.org/2000/svg"><path d="M13.5 9.9H9.9v3.6H8.1V9.9H4.5V8.1h3.6V4.5h1.8v3.6h3.6v1.8zM9 0a9 9 0 1 0 0 18A9 9 0 0 0 9 0z"/></symbol><symbol viewBox="0 0 14 14" id="call" xmlns="http://www.w3.org/2000/svg"><path d="M.778 0A.778.778 0 0 0 0 .778 13.222 13.222 0 0 0 13.222 14a.778.778 0 0 0 .778-.778V10.5a.778.778 0 0 0-.778-.778 8.835 8.835 0 0 1-2.776-.443.794.794 0 0 0-.794.187l-1.71 1.71a11.702 11.702 0 0 1-5.126-5.125l1.71-1.719a.747.747 0 0 0 .195-.778A8.836 8.836 0 0 1 4.278.778.778.778 0 0 0 3.5 0H.778zm11.666 6.222V5.056H9.722L14 .778 13.222 0 8.944 4.278V1.556H7.778v4.666h4.666z"/></symbol><symbol viewBox="0 0 14 14" id="call2" xmlns="http://www.w3.org/2000/svg"><path d="M.778 0A.778.778 0 0 0 0 .778 13.222 13.222 0 0 0 13.222 14a.778.778 0 0 0 .778-.778V10.5a.778.778 0 0 0-.778-.778 8.835 8.835 0 0 1-2.776-.443.794.794 0 0 0-.794.187l-1.71 1.71a11.702 11.702 0 0 1-5.126-5.125l1.71-1.719a.747.747 0 0 0 .195-.778A8.836 8.836 0 0 1 4.278.778.778.778 0 0 0 3.5 0H.778z"/></symbol><symbol viewBox="0 0 24 24" id="call3" xmlns="http://www.w3.org/2000/svg"><path fill-rule="evenodd" clip-rule="evenodd" d="M9.002 17c3.66 3.658 7.05 4.058 8.045 4.095 1.203.044 2.43-.938 2.962-1.943-.847-.994-1.95-1.764-3.158-2.6-.712.712-1.59 2.035-2.76 1.56-.665-.267-2.308-1.023-3.743-2.459-1.436-1.434-2.191-3.077-2.46-3.74-.475-1.172.852-2.052 1.565-2.764C8.617 7.92 7.86 6.79 6.868 5.986c-1.02.533-2.008 1.75-1.963 2.97.037.995.438 4.385 4.097 8.044Zm7.975 5.997c-1.37-.05-5.254-.587-9.321-4.652-4.066-4.066-4.602-7.948-4.653-9.32-.077-2.089 1.524-4.118 3.373-4.91a1.4 1.4 0 0 1 1.375.15c1.53 1.117 2.586 2.808 3.492 4.132a1.43 1.43 0 0 1-.168 1.82l-1.29 1.291c.3.661.91 1.801 1.909 2.8.999.999 2.139 1.609 2.801 1.909l1.29-1.29a1.43 1.43 0 0 1 1.825-.163c1.351.936 2.938 1.976 4.096 3.457a1.398 1.398 0 0 1 .18 1.413c-.797 1.858-2.813 3.44-4.909 3.363Z"/></symbol><symbol viewBox="0 0 24 25" id="cart" xmlns="http://www.w3.org/2000/svg"><path d="M7.704 17.1H20.6v.4H7.2a1.4 1.4 0 0 1-1.4-1.4c0-.247.063-.479.166-.674l1.628-2.933.25-.45-.22-.463-4.32-9.109-.272-.571H1v-.4h2.29l.857 1.825.27.575H22.8a.2.2 0 0 1 .141.059l.707-.708-.707.708A.2.2 0 0 1 23 4.1a.506.506 0 0 1-.045.162l-4.268 7.715-.001.001c-.24.43-.705.722-1.226.722H7.93l-.285.517-1.069 1.935a1.26 1.26 0 0 0-.172.648c0 .345.137.675.38.92l.708-.708-.707.707a1.3 1.3 0 0 0 .919.381Zm10.096 5c0-.78.62-1.4 1.4-1.4a1.4 1.4 0 1 1-1.4 1.4Zm-12 0c0-.78.62-1.4 1.4-1.4a1.4 1.4 0 1 1-1.4 1.4Z" stroke="currentColor" stroke-width="2"/></symbol><symbol fill="none" viewBox="0 0 23 21" id="catalog" xmlns="http://www.w3.org/2000/svg"><circle cx="15.584" cy="9.167" r="4.75" stroke="currentColor" stroke-width="1.5"/><path d="M19.112 13.292 22 16.586M.75 1.083h20.115M.75 19.417h20.115M.75 14.833h7.601M.75 10.25h5.326M.75 5.667h7.601" stroke="currentColor" stroke-width="1.5" stroke-linecap="round"/></symbol><symbol fill="none" viewBox="0 0 17 16" id="chart-line-up" xmlns="http://www.w3.org/2000/svg"><path d="M12.55 4h-2.6a.659.659 0 0 0-.65.667c0 .368.292.666.65.666h2.317L9.109 8.471a.652.652 0 0 1-.918 0c-.027-.026-.805-.595-.805-.595-.74-.715-2-.689-2.706.034L1.7 10.853a.679.679 0 0 0-.018.942.641.641 0 0 0 .919.019l2.99-2.952a.652.652 0 0 1 .918 0c.027.027.806.595.806.595.74.716 2 .691 2.706-.036l3.179-3.16v2.405c0 .368.291.667.65.667.359 0 .65-.299.65-.667V5.999C14.5 4.897 13.626 4 12.55 4Z" fill="currentColor"/></symbol><symbol viewBox="0 0 12 12" id="clock" xmlns="http://www.w3.org/2000/svg"><path d="M6 10.8a4.8 4.8 0 1 0 0-9.6 4.8 4.8 0 0 0 0 9.6zM6 0a6 6 0 1 1 0 12A6 6 0 0 1 6 0zm.3 3v3.15L9 7.752l-.45.738L5.4 6.6V3h.9z"/></symbol><symbol fill="none" viewBox="0 0 16 16" id="coins" xmlns="http://www.w3.org/2000/svg"><path d="M5.333 10a4.667 4.667 0 1 0 0-9.333 4.667 4.667 0 0 0 0 9.333ZM13 6.627A4.666 4.666 0 1 1 6.627 13" stroke="currentColor" stroke-linecap="round" stroke-linejoin="round"/><path d="m4.9 4.478-.268-.134.269.134.399-.804.4.804.268-.134-.269.134a.6.6 0 0 0 .45.326l.887.132-.64.628a.6.6 0 0 0-.172.528l.15.885-.796-.415a.6.6 0 0 0-.556 0l-.795.415.15-.885a.6.6 0 0 0-.173-.528l-.21.214.21-.214-.64-.628.887-.132a.6.6 0 0 0 .45-.326ZM10.4 9.978l-.268-.134.269.134.399-.804.4.804.268-.134-.269.134a.6.6 0 0 0 .45.326l.887.132-.64.628a.6.6 0 0 0-.172.528l.15.885-.796-.415a.6.6 0 0 0-.556 0l-.795.415.15-.885a.6.6 0 0 0-.173-.528l-.21.214.21-.214-.64-.628.887-.132a.6.6 0 0 0 .45-.326Z" stroke="currentColor" stroke-width=".6"/></symbol><symbol viewBox="2 2 12 12" fill="none" id="comments" xmlns="http://www.w3.org/2000/svg"><path d="M8 2C4.691 2 2 4.691 2 8s2.691 6 6 6h6V8c0-3.309-2.691-6-6-6Zm5 11H8c-2.757 0-5-2.243-5-5s2.243-5 5-5 5 2.243 5 5v5ZM8.75 8a.75.75 0 1 1-1.5 0 .75.75 0 0 1 1.5 0Zm2.5 0a.75.75 0 1 1-1.5 0 .75.75 0 0 1 1.5 0Zm-5 0a.75.75 0 1 1-1.5 0 .75.75 0 0 1 1.5 0Z" fill="currentColor"/></symbol><symbol viewBox="0 0 21 22" id="compare" xmlns="http://www.w3.org/2000/svg"><rect x=".5" y="6.5" width="4" height="15" rx="1.5" stroke="currentColor"/><rect x="8.5" y=".5" width="4" height="21" rx="1.5" stroke="currentColor"/><rect x="16.5" y="12.5" width="4" height="9" rx="1.5" stroke="currentColor"/></symbol><symbol viewBox="0 0 18 20" id="comparison" xmlns="http://www.w3.org/2000/svg"><path d="M0 20V6h4v14H0zm7 0V0h4v20H7zm7 0v-8h4v8h-4z"/></symbol><symbol fill="none" viewBox="0 0 17 17" id="confeti" xmlns="http://www.w3.org/2000/svg"><path d="M3.833 9.833a.667.667 0 1 0 0-1.333.667.667 0 0 0 0 1.333ZM1.167 7.167a.667.667 0 1 0 0-1.333.667.667 0 0 0 0 1.333ZM3.833 4.5a.667.667 0 1 0 0-1.334.667.667 0 0 0 0 1.334ZM1.167 1.833a.667.667 0 1 0 0-1.333.667.667 0 0 0 0 1.333ZM15.833 9.833a.667.667 0 1 0 0-1.333.667.667 0 0 0 0 1.333ZM13.167 7.167a.667.667 0 1 0 0-1.333.667.667 0 0 0 0 1.333ZM15.833 4.5a.667.667 0 1 0 0-1.333.667.667 0 0 0 0 1.333ZM13.167 1.833a.667.667 0 1 0 0-1.333.667.667 0 0 0 0 1.333ZM9.833 16.5a.667.667 0 1 0 0-1.333.667.667 0 0 0 0 1.333ZM7.167 13.833a.667.667 0 1 0 0-1.333.667.667 0 0 0 0 1.333ZM9.833 11.167a.667.667 0 1 0 0-1.333.667.667 0 0 0 0 1.333ZM7.167 8.5a.667.667 0 1 0 0-1.333.667.667 0 0 0 0 1.333ZM10.5 2.5a1.333 1.333 0 0 1-1.333-1.333.667.667 0 0 0-1.333 0A1.333 1.333 0 0 1 6.5 2.5a.667.667 0 0 0 0 1.333 1.333 1.333 0 0 1 1.333 1.334.667.667 0 1 0 1.334 0A1.333 1.333 0 0 1 10.5 3.833a.667.667 0 0 0 0-1.333ZM5.167 13.166a1.334 1.334 0 0 1-1.334-1.333.667.667 0 1 0-1.333 0 1.333 1.333 0 0 1-1.333 1.333.666.666 0 1 0 0 1.334A1.333 1.333 0 0 1 2.5 15.833a.667.667 0 1 0 1.333 0A1.333 1.333 0 0 1 5.167 14.5a.667.667 0 1 0 0-1.334ZM15.833 13.166a1.333 1.333 0 0 1-1.333-1.333.667.667 0 1 0-1.334 0 1.334 1.334 0 0 1-1.333 1.333.666.666 0 1 0 0 1.334 1.333 1.333 0 0 1 1.333 1.333.666.666 0 1 0 1.334 0 1.333 1.333 0 0 1 1.333-1.333.667.667 0 1 0 0-1.334Z" fill="currentColor"/></symbol><symbol viewBox="0 0 12 12" id="cross" xmlns="http://www.w3.org/2000/svg"><path d="M12 1.209 10.791 0 6 4.791 1.209 0 0 1.209 4.791 6 0 10.791 1.209 12 6 7.209 10.791 12 12 10.791 7.209 6 12 1.209z"/></symbol><symbol viewBox="0 0 18 18" id="cross-button" xmlns="http://www.w3.org/2000/svg"><path d="M11.546 12.82 9 10.275 6.454 12.82l-1.272-1.273 2.545-2.545-2.545-2.546 1.272-1.272L9 7.729l2.546-2.545 1.272 1.272-2.545 2.546 2.545 2.545-1.272 1.273zm3.818-10.182A9 9 0 1 0 2.636 15.367 9 9 0 0 0 15.364 2.638z"/></symbol><symbol viewBox="0 0 18 20" id="date" xmlns="http://www.w3.org/2000/svg"><path d="M11 13H4v2h7v-2zm5 5H2V7h14v11zm0-16h-1V0h-2v2H5V0H3v2H2a2 2 0 0 0-2 2v14a2 2 0 0 0 2 2h14a2 2 0 0 0 2-2V4a2 2 0 0 0-2-2zm-2 7H4v2h10V9z"/></symbol><symbol viewBox="0 0 73 73" id="delivery" xmlns="http://www.w3.org/2000/svg"><path fill-rule="evenodd" clip-rule="evenodd" d="M2.92 13.688a1.095 1.095 0 0 0-1.095 1.094V49.82a1.095 1.095 0 0 0 1.095 1.095h10.03c-.05.352-.111.704-.111 1.07 0 4.22 3.444 7.664 7.664 7.664s7.665-3.445 7.665-7.665c0-.365-.062-.717-.111-1.069h18.66c.074-.001.147-.01.218-.026h2.148c-.053.36-.112.72-.112 1.095 0 4.22 3.445 7.664 7.665 7.664 4.22 0 7.664-3.444 7.664-7.664 0-.374-.059-.735-.11-1.095h6.616a1.095 1.095 0 0 0 1.095-1.095v-6.488c.002-.026.004-.051.004-.077v-4.392c0-.037 0-.075-.004-.112v-6.454c0-.265-.095-.522-.27-.722a1.093 1.093 0 0 0-.137-.171L60.147 18.414a1.096 1.096 0 0 0-.825-.372h-11.51v-3.26a1.095 1.095 0 0 0-1.095-1.094H2.92zm1.095 2.19h41.607V39.94H4.015V15.877zm43.797 4.353h11.014l9.585 10.945H47.812V20.231zm.064 13.135h21.835v4.376h-3.225a1.095 1.095 0 0 0-1.095 1.095v4.392a1.095 1.095 0 0 0 1.095 1.095h3.225V48.7h-6.18c-1.237-2.58-3.853-4.38-6.895-4.38-3.042 0-5.658 1.8-6.895 4.38h-1.865V33.366zm3.157 3.29a1.097 1.097 0 1 0 .111 2.19h2.224a1.096 1.096 0 0 0 .424-2.112 1.096 1.096 0 0 0-.424-.079h-2.224a1.146 1.146 0 0 0-.111 0zm16.548 3.276h2.13v2.202h-2.13v-2.202zM4.015 42.13h41.607v6.595H27.415c-1.23-2.594-3.86-4.405-6.912-4.405s-5.68 1.81-6.912 4.405H4.015V46.51h3.332a1.094 1.094 0 1 0 0-2.19H4.015v-2.19zm16.488 4.38a5.458 5.458 0 0 1 5.475 5.474 5.458 5.458 0 0 1-5.475 5.475 5.458 5.458 0 0 1-5.475-5.475 5.458 5.458 0 0 1 5.475-5.474zm36.133 0a5.458 5.458 0 0 1 5.474 5.474 5.458 5.458 0 0 1-5.474 5.475 5.458 5.458 0 0 1-5.475-5.475 5.458 5.458 0 0 1 5.475-5.474zM20.503 48.7a3.302 3.302 0 0 0-3.285 3.284 3.301 3.301 0 0 0 3.285 3.285 3.302 3.302 0 0 0 3.285-3.285 3.302 3.302 0 0 0-3.285-3.284zm36.133 0a3.302 3.302 0 0 0-3.285 3.284 3.301 3.301 0 0 0 3.285 3.285 3.302 3.302 0 0 0 3.285-3.285 3.302 3.302 0 0 0-3.285-3.284zm-36.133 2.19c.618 0 1.095.477 1.095 1.094 0 .618-.477 1.095-1.095 1.095a1.079 1.079 0 0 1-1.095-1.095 1.08 1.08 0 0 1 1.095-1.095zm36.133 0c.617 0 1.095.477 1.095 1.094 0 .618-.477 1.095-1.095 1.095a1.079 1.079 0 0 1-1.095-1.095 1.08 1.08 0 0 1 1.095-1.095z"/></symbol><symbol viewBox="0 0 12 12" id="dict-arrow-bottom" xmlns="http://www.w3.org/2000/svg"><path d="M5.242 0h1.516v9.09l4.166-4.165L12 6l-6 6-6-6 1.076-1.076 4.166 4.167V0z"/></symbol><symbol viewBox="0 0 12 12" id="dict-arrow-left" xmlns="http://www.w3.org/2000/svg"><path d="M12 5.242v1.516H2.91l4.165 4.166L6 12 0 6l6-6 1.076 1.076-4.167 4.166H12z"/></symbol><symbol viewBox="0 0 12 12" id="dict-arrow-right" xmlns="http://www.w3.org/2000/svg"><path d="M0 6.758V5.242h9.09L4.925 1.076 6 0l6 6-6 6-1.076-1.076 4.167-4.166H0z"/></symbol><symbol viewBox="0 0 12 12" id="dict-arrow-top" xmlns="http://www.w3.org/2000/svg"><path d="M6.758 12H5.242V2.91L1.076 7.075 0 6l6-6 6 6-1.076 1.076-4.166-4.167V12z"/></symbol><symbol viewBox="0 0 14 14" id="enter" xmlns="http://www.w3.org/2000/svg"><path fill-rule="evenodd" clip-rule="evenodd" d="M14 1.75A1.75 1.75 0 0 0 12.25 0h-7.7A1.75 1.75 0 0 0 2.8 1.75v3.36h1.4V1.75a.35.35 0 0 1 .35-.35h7.7a.35.35 0 0 1 .35.35v10.5a.35.35 0 0 1-.35.35h-7.7a.35.35 0 0 1-.35-.35V8.89H2.8v3.36c0 .966.784 1.75 1.75 1.75h7.7A1.75 1.75 0 0 0 14 12.25V1.75zM6.3 6.3H.7v1.4h5.6v2.1L9.8 7 6.3 4.2v2.1z"/></symbol><symbol viewBox="2 2 20 20" fill="none" id="envelope" xmlns="http://www.w3.org/2000/svg"><path d="M20.333 4H3.667C2.747 4 2 4.797 2 5.778v12.444C2 19.202 2.747 20 3.667 20h16.666c.92 0 1.667-.797 1.667-1.778V5.778C22 4.798 21.253 4 20.333 4Zm-16.666.889h16.666c.062 0 .116.024.174.037a2293.73 2293.73 0 0 1-7.902 7.687c-.131.126-.343.276-.605.276-.262 0-.474-.15-.605-.277a2311.816 2311.816 0 0 1-7.902-7.686c.058-.013.112-.037.174-.037Zm-.834 13.333V5.778c0-.087.025-.166.047-.246 1.104 1.078 4.443 4.336 6.607 6.436-2.157 1.977-5.496 5.354-6.61 6.486-.02-.076-.044-.15-.044-.232Zm17.5.89H3.667c-.067 0-.126-.026-.188-.041 1.15-1.17 4.51-4.567 6.63-6.5l.728.702c.344.33.745.505 1.163.505.418 0 .82-.175 1.162-.505.2-.191.452-.435.729-.703 2.12 1.934 5.48 5.33 6.63 6.5-.062.016-.121.041-.188.041Zm.834-.89c0 .082-.025.156-.044.232-1.114-1.133-4.453-4.51-6.61-6.486 2.164-2.1 5.502-5.357 6.607-6.436.022.08.047.159.047.246v12.444Z" fill="currentColor"/></symbol><symbol viewBox="0 0 13 13" id="expand" xmlns="http://www.w3.org/2000/svg"><path d="M5.056 13v-1.444H2.463l3.25-3.25-1.019-1.019-3.25 3.25V7.944H0V13h5.056zm3.25-7.287 3.25-3.25v2.593H13V0H7.944v1.444h2.593l-3.25 3.25 1.019 1.019z"/></symbol><symbol viewBox="0 0 10 20" id="facebook" xmlns="http://www.w3.org/2000/svg"><path d="M9.145 10.068H6.558v9.479h-3.92v-9.48H.773v-3.33h1.865V4.58c0-1.542.732-3.956 3.955-3.956l2.903.012V3.87H7.39c-.346 0-.832.173-.832.908v1.96h2.93l-.343 3.329z"/></symbol><symbol viewBox="0 0 24 24" id="favorite" xmlns="http://www.w3.org/2000/svg"><path d="M10.95 21.12h-.002c-3.11-2.945-5.611-5.32-7.348-7.54C1.876 11.377 1 9.442 1 7.394 1 4.033 3.496 1.5 6.6 1.5c1.77 0 3.497.866 4.627 2.242l.773.94.773-.94C13.903 2.366 15.63 1.5 17.4 1.5c3.104 0 5.6 2.533 5.6 5.894 0 2.048-.876 3.983-2.6 6.186-1.737 2.22-4.239 4.595-7.348 7.54h-.001l-1.051 1-1.05-1Z" stroke="currentColor"/></symbol><symbol fill="none" viewBox="0 0 24 24" id="gift" xmlns="http://www.w3.org/2000/svg"><path d="M12 4.875V7.5m0-2.625A2.625 2.625 0 1 1 14.625 7.5H12m0-2.625A2.625 2.625 0 1 0 9.375 7.5H12" stroke="#2D9CDB" stroke-width="2" stroke-miterlimit="10" stroke-linecap="round"/><path d="M19.5 7.5h-15A1.5 1.5 0 0 0 3 9v2.25a1.5 1.5 0 0 0 1.5 1.5h15a1.5 1.5 0 0 0 1.5-1.5V9a1.5 1.5 0 0 0-1.5-1.5Z" stroke="#2D9CDB" stroke-width="2" stroke-linecap="round" stroke-linejoin="round"/><path d="M19.5 12.75v6.75a2.25 2.25 0 0 1-2.25 2.25H6.75A2.25 2.25 0 0 1 4.5 19.5v-6.75M12 7.5v14.25" stroke="#2D9CDB" stroke-width="2" stroke-linecap="round" stroke-linejoin="round"/></symbol><symbol fill="none" viewBox="0 0 22 20" id="home" xmlns="http://www.w3.org/2000/svg"><path d="M.76 11.91h1.792v7.307c0 .43.346.783.768.783h5.248a.778.778 0 0 0 .768-.783v-5.35h3.2v5.35c0 .43.345.783.768.783h4.992a.778.778 0 0 0 .768-.783V11.91h2.176a.768.768 0 0 0 .704-.483.798.798 0 0 0-.167-.848L11.767.232a.755.755 0 0 0-1.074-.013L.235 10.566a.794.794 0 0 0-.179.861c.115.3.397.483.704.483ZM11.205 1.889l8.191 8.455h-1.1a.778.778 0 0 0-.768.783v7.307h-3.456v-5.35a.778.778 0 0 0-.768-.783H8.568a.778.778 0 0 0-.768.783v5.35H4.088v-7.307a.778.778 0 0 0-.768-.783h-.666l8.55-8.455Z" fill="currentColor"/></symbol><symbol fill="none" viewBox="0 0 22 22" id="indicator-youtube" xmlns="http://www.w3.org/2000/svg"><path fill="#fff" d="M6.6 6.6h8.8v8.8H6.6z"/><path fill="#F61C0D" d="M17.4 3.3H4.6A4.6 4.6 0 0 0 0 7.9v6.4a4.6 4.6 0 0 0 4.6 4.6h12.8a4.6 4.6 0 0 0 4.6-4.6V7.9a4.6 4.6 0 0 0-4.6-4.6zm-3 8.1-6 2.9A.2.2 0 0 1 8 14V8.1c0-.1.2-.3.3-.2l6 3a.2.2 0 0 1 0 .5z"/></symbol><symbol viewBox="0 0 19 19" id="instagram" xmlns="http://www.w3.org/2000/svg"><path d="M9.5 14.031a4.497 4.497 0 0 0 4.492-4.49A4.5 4.5 0 0 0 9.5 5.044a4.497 4.497 0 0 0-4.49 4.493A4.498 4.498 0 0 0 9.5 14.03zm0-7.086a2.598 2.598 0 0 1 2.596 2.595A2.598 2.598 0 0 1 9.5 12.136 2.6 2.6 0 0 1 6.905 9.54 2.6 2.6 0 0 1 9.5 6.945zm4.636-.969c.588 0 1.063-.478 1.063-1.062a1.063 1.063 0 0 0-2.125 0c0 .584.475 1.062 1.062 1.062z"/><path d="M5.18 18.261h8.641c2.425 0 4.4-1.972 4.4-4.4V5.219a4.404 4.404 0 0 0-4.4-4.401H5.18a4.408 4.408 0 0 0-4.4 4.4v8.643c0 2.425 1.971 4.4 4.4 4.4zM2.677 5.22a2.504 2.504 0 0 1 2.501-2.502h8.642a2.504 2.504 0 0 1 2.501 2.502v8.642a2.504 2.504 0 0 1-2.5 2.5H5.178a2.504 2.504 0 0 1-2.501-2.5V5.219z"/></symbol><symbol viewBox="0 0 18 18" id="link" xmlns="http://www.w3.org/2000/svg"><path d="M16 14.59 14.59 16 4 5.41V12H2V2h10v2H5.41L16 14.59z"/></symbol><symbol fill="none" viewBox="0 0 24 24" id="link-chain" xmlns="http://www.w3.org/2000/svg"><path d="M13.544 10.456a4.368 4.368 0 0 0-6.176 0L4.28 13.544a4.368 4.368 0 1 0 6.177 6.177L12 18.177" stroke="currentColor" stroke-width="1.2" stroke-linecap="round" stroke-linejoin="round"/><path d="M10.457 13.544a4.368 4.368 0 0 0 6.176 0l3.089-3.088a4.367 4.367 0 1 0-6.177-6.177l-1.544 1.544" stroke="currentColor" stroke-width="1.2" stroke-linecap="round" stroke-linejoin="round"/></symbol><symbol viewBox="0 0 6 10" id="list-rows-arrow" xmlns="http://www.w3.org/2000/svg"><path d="M0 8.825 3.712 5 0 1.175 1.148 0 6 5l-4.852 5L0 8.825z"/></symbol><symbol viewBox="0 0 14 14" id="logout" xmlns="http://www.w3.org/2000/svg"><path d="M1.556 0h10.888A1.55 1.55 0 0 1 14 1.556v3.11h-1.556v-3.11H1.556v10.888h10.888v-3.11H14v3.11A1.556 1.556 0 0 1 12.444 14H1.556A1.556 1.556 0 0 1 0 12.444V1.556C0 .692.7 0 1.556 0zm6.937 9.784L7.39 10.89 3.5 7l3.889-3.889 1.104 1.097L6.48 6.222H14v1.556H6.479l2.014 2.006z"/></symbol><symbol viewBox="0 0 18 18" id="magnify" xmlns="http://www.w3.org/2000/svg"><path d="M12.857 11.314 18 16.457 16.457 18l-5.143-5.143v-.812l-.277-.288a6.656 6.656 0 0 1-4.351 1.614 6.686 6.686 0 1 1 6.685-6.685 6.656 6.656 0 0 1-1.614 4.35l.288.278h.812zm-6.171 0a4.61 4.61 0 0 0 4.628-4.628 4.61 4.61 0 0 0-4.628-4.629 4.61 4.61 0 0 0-4.629 4.629 4.61 4.61 0 0 0 4.629 4.628zM9.257 7.2H7.2v2.057H6.171V7.2H4.114V6.171h2.057V4.114H7.2v2.057h2.057V7.2z"/></symbol><symbol viewBox="0 0 16 12" id="mail" xmlns="http://www.w3.org/2000/svg"><path d="M14.4 3 8 6.75 1.6 3V1.5L8 5.25l6.4-3.75V3zm0-3H1.6C.712 0 0 .667 0 1.5v9c0 .398.169.78.469 1.06.3.282.707.44 1.131.44h12.8c.424 0 .831-.158 1.131-.44.3-.28.469-.662.469-1.06v-9c0-.833-.72-1.5-1.6-1.5z"/></symbol><symbol viewBox="0 0 12 16" id="map" xmlns="http://www.w3.org/2000/svg"><path d="M4.144 7.38C4.64 7.844 5.31 8.1 6 8.1c.342 0 .682-.063 1-.186.318-.123.61-.304.856-.534.247-.23.445-.506.58-.812.136-.306.207-.635.207-.968 0-.675-.288-1.314-.787-1.78A2.723 2.723 0 0 0 6 3.1c-.69 0-1.359.256-1.856.72a2.435 2.435 0 0 0-.787 1.78c0 .675.288 1.314.787 1.78ZM6 15.267a37.006 37.006 0 0 1-2.595-3.185c-.74-1.024-1.472-2.166-2.017-3.301C.84 7.638.5 6.54.5 5.6c0-1.341.57-2.635 1.599-3.594C3.128 1.046 4.53.5 6 .5c1.47 0 2.872.545 3.901 1.506C10.93 2.966 11.5 4.259 11.5 5.6c0 .942-.34 2.038-.888 3.18-.545 1.136-1.277 2.278-2.017 3.302A37.006 37.006 0 0 1 6 15.267Z" stroke="currentColor"/></symbol><symbol fill="none" viewBox="0 0 30 30" id="mastercard" xmlns="http://www.w3.org/2000/svg"><path fill="#FF5F00" d="M17.8 19.7h-5.6v-10h5.6v10z"/><path fill="#EB001B" d="M12.6 14.7c0-2 1-3.8 2.4-5a6.3 6.3 0 0 0-10.2 5 6.3 6.3 0 0 0 10.2 5 6.3 6.3 0 0 1-2.4-5z"/><path fill="#F79E1B" d="M25.2 14.7a6.3 6.3 0 0 1-10.2 5 6.3 6.3 0 0 0 2.4-5 6.3 6.3 0 0 0-2.4-5 6.3 6.3 0 0 1 10.2 5z"/></symbol><symbol fill="none" viewBox="0 0 20 20" id="mc-facebook" xmlns="http://www.w3.org/2000/svg"><path fill="#3B5998" d="M10 20a10 10 0 1 0 0-20 10 10 0 0 0 0 20z"/><path fill="#fff" d="M12.5 10.4h-1.8v6.5H8v-6.5H6.7V8H8V6.6c0-1 .5-2.7 2.8-2.7h2V6h-1.5c-.2 0-.6.1-.6.6V8h2l-.2 2.3z"/></symbol><symbol fill="none" viewBox="0 0 20 20" id="mc-odnoklassniki" xmlns="http://www.w3.org/2000/svg"><circle cx="10" cy="10" r="10" fill="#F2994A"/><path fill="#fff" d="M12.983 10.396c-.15-.305-.571-.56-1.131-.128-.763.608-1.979.608-1.979.608s-1.216 0-1.979-.608c-.56-.432-.981-.177-1.13.128-.267.533.031.794.709 1.226.581.374 1.376.512 1.888.566l-.427.426c-.608.603-1.195 1.185-1.595 1.59a.608.608 0 0 0 0 .864l.075.085c.24.24.635.24.875 0l1.584-1.589c.614.603 1.195 1.184 1.6 1.59.24.24.63.24.875 0l.07-.086a.6.6 0 0 0 0-.864l-1.59-1.59-.421-.432c.506-.048 1.29-.191 1.866-.56.678-.432.976-.693.71-1.226zm-3.11-4.358c.736 0 1.334.597 1.334 1.328a1.33 1.33 0 0 1-1.334 1.328A1.33 1.33 0 0 1 8.54 7.366c0-.73.597-1.328 1.333-1.328zm0 4.027a2.699 2.699 0 1 0 0-5.399 2.699 2.699 0 0 0 0 5.399z"/></symbol><symbol viewBox="0 0 20 20" id="mc-telegram" xmlns="http://www.w3.org/2000/svg"><path d="M20 10c0-5.52-4.48-10-10-10S0 4.48 0 10s4.48 10 10 10 10-4.48 10-10Z" fill="#039be5"/><path d="M14.22 6.07c.45-.17.84.11.69.78-.98 4.64-1.53 7.22-1.64 7.74-.12.54-.45.68-.9.42-.17-.12-1-.74-2.5-1.84-.73.69-1.13 1.08-1.21 1.16-.13.13-.25.24-.5.24.01-.17.07-1.01.17-2.54l4.64-4.19c.2-.17-.05-.27-.31-.1-.39.24-2.29 1.44-5.73 3.61-1.48-.46-2.3-.72-2.47-.77-.53-.17-.55-.54.12-.8 1.92-.74 8.67-3.34 9.64-3.71Z" fill="#fff"/></symbol><symbol fill="none" viewBox="0 0 20 20" id="mc-twitter" xmlns="http://www.w3.org/2000/svg"><path fill="#55ACEE" d="M10 20a10 10 0 1 0 0-20 10 10 0 0 0 0 20z"/><path fill="#fff" d="m16.1 7.2-1.3.4a2.4 2.4 0 0 0 1-1.4 4.8 4.8 0 0 1-1.5.6 2.4 2.4 0 0 0-4 2.2 6.8 6.8 0 0 1-5-2.5A2.4 2.4 0 0 0 6 9.7a2.4 2.4 0 0 1-1-.3 2.4 2.4 0 0 0 1.9 2.4 2.4 2.4 0 0 1-1.1 0A2.4 2.4 0 0 0 8 13.5a4.8 4.8 0 0 1-3.5 1 6.8 6.8 0 0 0 3.6 1 6.8 6.8 0 0 0 6.8-7 4.8 4.8 0 0 0 1.2-1.3z"/></symbol><symbol fill="none" viewBox="0 0 20 20" id="mc-vk" xmlns="http://www.w3.org/2000/svg"><path fill="#4D76A1" d="M10 20a10 10 0 1 0 0-20 10 10 0 0 0 0 20z"/><path fill="#fff" fill-rule="evenodd" d="M9.62 14.39h.79s.23-.03.35-.16c.12-.12.11-.35.11-.35s-.01-1.05.48-1.2c.48-.16 1.1 1.01 1.75 1.46.5.34.88.27.88.27l1.75-.02s.92-.06.48-.78c-.03-.06-.25-.54-1.3-1.51-1.1-1.02-.95-.86.37-2.62.8-1.08 1.13-1.73 1.03-2.01-.1-.27-.7-.2-.7-.2l-1.96.01s-.15-.02-.26.05a.55.55 0 0 0-.17.2s-.32.84-.73 1.55c-.88 1.5-1.23 1.57-1.38 1.48-.33-.22-.25-.87-.25-1.33 0-1.45.22-2.05-.43-2.21a3.39 3.39 0 0 0-.92-.1c-.7 0-1.3.01-1.64.18-.22.1-.4.35-.29.37.13.01.43.08.58.29.2.27.2.9.2.9s.12 1.7-.27 1.9c-.27.15-.63-.15-1.42-1.5a12.59 12.59 0 0 1-.7-1.46s-.06-.14-.16-.22a.82.82 0 0 0-.3-.12l-1.88.01s-.29 0-.39.13c-.1.1 0 .33 0 .33s1.46 3.44 3.13 5.17c1.52 1.59 3.25 1.49 3.25 1.49z" clip-rule="evenodd"/></symbol><symbol viewBox="0 0 20 20" id="mc-yandex-zen" xmlns="http://www.w3.org/2000/svg"><defs><path d="M14.22 6.07c.45-.17.84.11.69.78-.98 4.64-1.53 7.22-1.64 7.74-.12.54-.45.68-.9.42-.17-.12-1-.74-2.5-1.84-.73.69-1.13 1.08-1.21 1.16-.13.13-.25.24-.5.24.01-.17.07-1.01.17-2.54l4.64-4.19c.2-.17-.05-.27-.31-.1-.39.24-2.29 1.44-5.73 3.61-1.48-.46-2.3-.72-2.47-.77-.53-.17-.55-.54.12-.8 1.92-.74 8.67-3.34 9.64-3.71Z" id="cia"/><path d="M20 10c0-5.52-4.48-10-10-10S0 4.48 0 10s4.48 10 10 10 10-4.48 10-10Z" id="cib"/><path d="M5.3 5.3c-.79.8-.8 2.45-.8 4.64 2.44-.07 3.55-.14 4.44-1 .86-.89.93-2 1-4.44-2.27 0-3.84.01-4.64.8Zm-.8 4.76c2.44.07 3.55.14 4.44 1 .86.89.93 2 1 4.44-2.27 0-3.84-.01-4.65-.79-.78-.81-.79-2.46-.79-4.65Zm6.56 1c.89-.86 2-.93 4.44-1 0 2.19-.01 3.84-.8 4.65-.8.78-2.37.79-4.64.79.07-2.44.14-3.55 1-4.44Zm0-2.12c.89.86 2 .93 4.44 1 0-2.19-.01-3.84-.8-4.64-.8-.79-2.37-.8-4.64-.8.07 2.44.14 3.55 1 4.44Z" id="cic"/></defs><use xlink:href="#cia" fill="#fff"/><use xlink:href="#cia" fill-opacity="0" stroke="#000" stroke-opacity="0"/><use xlink:href="#cib" fill="#2c3036"/><use xlink:href="#cib" fill-opacity="0" stroke="#000" stroke-opacity="0"/><use xlink:href="#cic" fill="#fff"/><use xlink:href="#cic" fill-opacity="0" stroke="#000" stroke-opacity="0"/></symbol><symbol fill="none" viewBox="0 0 20 20" id="mc-youtube" xmlns="http://www.w3.org/2000/svg"><path fill="#F61C0D" d="M20 10a10 10 0 1 1-20 0 10 10 0 0 1 20 0z"/><path fill="#fff" d="M13.62 5.63H6.38a2.57 2.57 0 0 0-2.57 2.56v3.62a2.57 2.57 0 0 0 2.56 2.56h7.24a2.57 2.57 0 0 0 2.56-2.56V8.19a2.57 2.57 0 0 0-2.56-2.56zm-1.74 4.54L8.49 11.8a.14.14 0 0 1-.19-.12V8.34c0-.1.1-.17.2-.12l3.38 1.71c.1.05.1.2 0 .25z"/></symbol><symbol viewBox="0 0 16 4" id="menu-dots" xmlns="http://www.w3.org/2000/svg"><path d="M12 2a2 2 0 1 1 4 0 2 2 0 0 1-4 0zM6 2a2 2 0 1 1 4 0 2 2 0 0 1-4 0zM0 2a2 2 0 1 1 4 0 2 2 0 0 1-4 0z"/></symbol><symbol viewBox="0 0 9 9" id="minus" xmlns="http://www.w3.org/2000/svg"><path d="M9 5.143H0V3.857h9v1.286z"/></symbol><symbol viewBox="0 0 14 14" id="no-available" xmlns="http://www.w3.org/2000/svg"><path d="M7 0c3.871 0 7 3.129 7 7s-3.129 7-7 7-7-3.129-7-7 3.129-7 7-7zm2.513 3.5L7 6.013 4.487 3.5l-.987.987L6.013 7 3.5 9.513l.987.987L7 7.987 9.513 10.5l.987-.987L7.987 7 10.5 4.487 9.513 3.5z"/></symbol><symbol fill="none" viewBox="0 0 22 22" id="no-avatar" xmlns="http://www.w3.org/2000/svg"><circle cx="11" cy="11" r="11" fill="#EEE"/><path fill="#BDBDBD" d="M11 6a2 2 0 1 1 0 5 2 2 0 0 1 0-5zm0 6c3 0 5 1 5 2v2H6v-2c0-1 2-2 5-2z"/></symbol><symbol viewBox="0 0 60 54" id="no-thumb" xmlns="http://www.w3.org/2000/svg"><use xlink:href="#coa" transform="translate(.59 .53)"/><defs><path id="coa" d="M5.882 5.882h8.824L20.588 0h17.647l5.883 5.882h8.823a5.882 5.882 0 0 1 5.883 5.883v35.294a5.882 5.882 0 0 1-5.883 5.882H5.882A5.883 5.883 0 0 1 0 47.06V11.765a5.882 5.882 0 0 1 5.882-5.883zm23.53 8.824a14.706 14.706 0 1 0 0 29.412 14.706 14.706 0 0 0 0-29.412zm0 5.882a8.824 8.824 0 1 1 0 17.647 8.824 8.824 0 0 1 0-17.647z"/></defs></symbol><symbol viewBox="0 0 10 17" id="odnoklassniki" xmlns="http://www.w3.org/2000/svg"><path d="M9.825 9.073c-.216-.44-.827-.812-1.64-.185-1.105.882-2.869.882-2.869.882s-1.763 0-2.87-.882c-.811-.627-1.422-.255-1.639.185-.387.774.046 1.153 1.029 1.78.843.54 1.995.742 2.738.82l-.619.618c-.882.874-1.733 1.717-2.313 2.305-.348.356-.348.92 0 1.253l.109.123a.901.901 0 0 0 1.268 0l2.297-2.304c.89.874 1.733 1.717 2.32 2.305a.901.901 0 0 0 1.269 0l.1-.124c.356-.333.356-.897 0-1.253L6.701 12.29l-.611-.627c.734-.07 1.871-.278 2.707-.812.982-.626 1.415-1.005 1.028-1.779zM5.316 2.755c1.068 0 1.934.866 1.934 1.925a1.928 1.928 0 0 1-1.934 1.926A1.928 1.928 0 0 1 3.383 4.68c0-1.06.866-1.925 1.933-1.925zm0 5.839A3.908 3.908 0 0 0 9.23 4.68a3.913 3.913 0 1 0-7.827 0 3.908 3.908 0 0 0 3.913 3.914z"/></symbol><symbol viewBox="0 0 6 10" id="pagination-arrow" xmlns="http://www.w3.org/2000/svg"><path d="M0 8.825 3.712 5 0 1.175 1.148 0 6 5l-4.852 5L0 8.825z"/></symbol><symbol viewBox="0 0 73 73" id="pay" xmlns="http://www.w3.org/2000/svg"><path fill-rule="evenodd" clip-rule="evenodd" d="M7.3 18.067a4.38 4.38 0 0 1 4.38-4.38h47.085a4.38 4.38 0 0 1 4.38 4.38v9.855c1.21 0 2.19.981 2.19 2.19v12.046a2.19 2.19 0 0 1-2.19 2.19v9.855a4.38 4.38 0 0 1-4.38 4.38H11.68a4.38 4.38 0 0 1-4.38-4.38V18.066zm53.655 0v9.855H48.508c-.865 0-1.65.51-2.001 1.301l-2.677 6.023a2.19 2.19 0 0 0 0 1.778l2.677 6.023a2.19 2.19 0 0 0 2.001 1.3h12.447v9.855c0 1.21-.98 2.19-2.19 2.19H11.68a2.19 2.19 0 0 1-2.19-2.19V18.068c0-1.209.98-2.19 2.19-2.19h47.085c1.21 0 2.19.981 2.19 2.19zm2.19 12.046H48.508l-2.677 6.022 2.677 6.023h14.637V30.111zm-7.665 6.022a1.643 1.643 0 1 1-3.285 0 1.643 1.643 0 0 1 3.285 0zm2.19 0a3.833 3.833 0 1 1-7.665 0 3.833 3.833 0 0 1 7.665 0z"/></symbol><symbol viewBox="0 0 20 20" id="pen" xmlns="http://www.w3.org/2000/svg"><path d="M18.71 5.043c.39-.39.39-1.04 0-1.41l-2.34-2.34c-.37-.39-1.02-.39-1.41 0l-1.84 1.83 3.75 3.75 1.84-1.83zM1 15.253v3.75h3.75l11.06-11.07-3.75-3.75L1 15.253z"/></symbol><symbol viewBox="0 0 11 18" id="phone" xmlns="http://www.w3.org/2000/svg"><path d="M9.625 13.91h-8.25V2.454h8.25v11.454zm-2.554 2.454H3.93v-.819h3.14v.819zM8.643 0H2.357A2.31 2.31 0 0 0 .69.719 2.507 2.507 0 0 0 0 2.455v13.09c0 .651.248 1.276.69 1.736A2.31 2.31 0 0 0 2.357 18h6.286a2.31 2.31 0 0 0 1.667-.719c.442-.46.69-1.085.69-1.735V2.455c0-.651-.248-1.276-.69-1.736A2.31 2.31 0 0 0 8.643 0z"/></symbol><symbol viewBox="0 0 9 9" id="plus" xmlns="http://www.w3.org/2000/svg"><path d="M9 5.143H5.143V9H3.857V5.143H0V3.857h3.857V0h1.286v3.857H9v1.286z"/></symbol><symbol viewBox="0 0 18 18" id="products-compact-list" xmlns="http://www.w3.org/2000/svg"><path d="M0 0h18v2H0zm0 4h18v2H0zm0 4h18v2H0zm0 4h18v2H0zm0 4h18v2H0z"/></symbol><symbol viewBox="0 0 18 18" id="products-list" xmlns="http://www.w3.org/2000/svg"><path d="M0 0h4v4H0zm6 0h12v4H6zm0 7h12v4H6zm0 7h12v4H6zM0 7h4v4H0zm0 7h4v4H0z"/></symbol><symbol viewBox="0 0 18 18" id="products-thumbs" xmlns="http://www.w3.org/2000/svg"><path d="M0 8h8V0H0v8zm0 10h8v-8H0v8zm10 0h8v-8h-8v8zm0-18v8h8V0"/></symbol><symbol viewBox="0 0 18 18" id="products-thumbs-one" xmlns="http://www.w3.org/2000/svg"><path d="M0 0h18v8H0zm0 10h18v8H0z"/></symbol><symbol fill="none" viewBox="0 0 30 30" id="qiwi" xmlns="http://www.w3.org/2000/svg"><path fill="#FF8C00" d="M25.94 25.66c.18.23-.1.46-.3.27-2.12-1.8-3.9-2.33-5.66-2.4-.93-.04-1.86.05-2.84.13l-.59.05c-.08 0-.17 0-.26.02a9.48 9.48 0 0 1-1.04.06 9.6 9.6 0 0 1-4.64-1.17 8.7 8.7 0 0 1-3.39-3.23A8.57 8.57 0 0 1 6 14.92c0-1.6.4-3.12 1.22-4.48a8.8 8.8 0 0 1 3.35-3.26A9.22 9.22 0 0 1 15.13 6c1.7 0 3.28.4 4.71 1.17a8.8 8.8 0 0 1 3.4 3.24 8.9 8.9 0 0 1 1.05 6.3l-.08.3a2.32 2.32 0 0 1-.08.28 9.94 9.94 0 0 1-1.05 2.16c-.06.1-.09.02-.1-.03a4.09 4.09 0 0 0-1.9-3.06.2.2 0 0 1-.05-.03 3.38 3.38 0 0 0-.57-.29 6.3 6.3 0 0 0-.83-.28c-.19-.05-.6-.03-.45-.17.06-.06.95-.07 1.97 0h.06a5.57 5.57 0 0 0-1.74-4.86 5.87 5.87 0 0 0-4.27-1.71c-1.72 0-3.1.56-4.26 1.71a5.67 5.67 0 0 0-1.72 4.2c0 1.66.58 3.01 1.76 4.16a5.79 5.79 0 0 0 4.21 1.7h.24v-.05c-.1-1.17-.11-2.15.13-1.75l.26.39c.33.47.65.86.97 1.18l.05.05c1.17 1.15 2.32 1.44 3.55 1.72l.08.02.61.15c1.45.35 3.02.96 4.86 3.17zM21.9 18.6c-.18-.05-.31 0-.38.11-.1.18-.03.53.17.84.2.31.39.47.52.47.05 0 .1-.02.12-.06.08-.09.1-.27.07-.5-.02-.23-.17-.71-.5-.86zm-2.04 1.46a.56.56 0 0 0-.44.17c-.24.29-.13.8.24 1.12a1 1 0 0 0 .63.21.7.7 0 0 0 .55-.23c.21-.29.09-.68-.32-1.02a1.01 1.01 0 0 0-.66-.25z"/></symbol><symbol viewBox="0 0 18 18" id="recovery" xmlns="http://www.w3.org/2000/svg"><path d="M9.143 2a6.787 6.787 0 0 0-4.849 2.05A7.075 7.075 0 0 0 2.286 9H0l3.048 3.111L6.095 9H3.81a5.5 5.5 0 0 1 1.562-3.85 5.279 5.279 0 0 1 3.77-1.594c1.415 0 2.772.573 3.772 1.594A5.502 5.502 0 0 1 14.476 9a5.502 5.502 0 0 1-1.562 3.85 5.279 5.279 0 0 1-3.771 1.594 5.36 5.36 0 0 1-3.093-1.01l-1.098 1.12A6.853 6.853 0 0 0 9.142 16a6.787 6.787 0 0 0 4.85-2.05A7.074 7.074 0 0 0 16 9a7.074 7.074 0 0 0-2.008-4.95A6.787 6.787 0 0 0 9.142 2z"/></symbol><symbol viewBox="0 0 12 12" id="rss" xmlns="http://www.w3.org/2000/svg"><path d="M1.681 8.638a1.681 1.681 0 0 1 1.681 1.68c0 .91-.755 1.682-1.68 1.682A1.705 1.705 0 0 1 0 10.319a1.681 1.681 0 0 1 1.681-1.681zM0 0a12 12 0 0 1 12 12H9.817A9.818 9.818 0 0 0 0 2.183V0zm0 4.365A7.635 7.635 0 0 1 7.635 12H5.452A5.452 5.452 0 0 0 0 6.548V4.365z"/></symbol><symbol fill="none" viewBox="0 0 17 17" id="sale" xmlns="http://www.w3.org/2000/svg"><path fill-rule="evenodd" clip-rule="evenodd" d="M7.375.755a2.609 2.609 0 0 1 2.25 0c.31.148.592.39.985.724l.062.053c.19.162.25.212.311.253.155.104.328.175.51.21.072.015.15.022.4.042l.08.006c.513.04.885.07 1.208.184a2.616 2.616 0 0 1 1.592 1.592c.114.323.142.694.184 1.208l.006.08c.02.25.027.329.041.4.036.182.108.356.211.51.041.06.09.12.253.31l.053.063c.335.392.576.675.724.984.34.712.34 1.54 0 2.25-.147.31-.389.593-.724.986l-.053.062c-.09.1-.174.203-.253.311a1.399 1.399 0 0 0-.21.51 3.83 3.83 0 0 0-.042.399l-.007.08c-.04.514-.07.886-.184 1.209a2.608 2.608 0 0 1-1.591 1.592c-.323.113-.694.142-1.208.184l-.08.006c-.135.007-.268.02-.4.041a1.404 1.404 0 0 0-.51.211 3.878 3.878 0 0 0-.312.253l-.061.053c-.392.335-.676.576-.984.724a2.608 2.608 0 0 1-2.25 0c-.31-.147-.593-.389-.986-.724a172.4 172.4 0 0 0-.062-.053 3.83 3.83 0 0 0-.31-.253 1.396 1.396 0 0 0-.51-.211 3.817 3.817 0 0 0-.4-.04l-.08-.008c-.514-.04-.886-.07-1.209-.184a2.61 2.61 0 0 1-1.592-1.591c-.113-.323-.143-.695-.184-1.208l-.006-.081a3.812 3.812 0 0 0-.041-.4 1.406 1.406 0 0 0-.211-.509 3.797 3.797 0 0 0-.253-.312l-.053-.061c-.334-.393-.576-.676-.724-.985a2.609 2.609 0 0 1 0-2.25c.148-.31.39-.592.724-.985l.053-.062a3.81 3.81 0 0 0 .253-.31c.104-.155.175-.329.211-.511.014-.072.022-.15.04-.4l.007-.08c.041-.514.07-.885.184-1.208A2.609 2.609 0 0 1 3.82 2.227c.323-.114.695-.143 1.208-.184l.081-.006c.134-.007.267-.02.4-.041a1.41 1.41 0 0 0 .51-.211c.06-.041.12-.09.31-.253l.062-.053c.392-.334.676-.576.985-.724Zm1.73 1.086a1.405 1.405 0 0 0-1.21 0c-.149.07-.305.198-.785.607l-.024.02c-.158.134-.272.233-.398.317a2.606 2.606 0 0 1-.948.392c-.148.03-.298.041-.506.058l-.03.002c-.63.05-.829.072-.984.126-.4.142-.715.456-.856.857-.056.155-.076.354-.126.984l-.003.03a4.417 4.417 0 0 1-.057.506c-.068.339-.2.66-.392.948-.085.125-.184.24-.318.398l-.02.023c-.409.48-.536.637-.606.784a1.405 1.405 0 0 0 0 1.212c.07.148.197.304.606.785l.02.024c.134.158.233.272.317.398.192.287.325.609.392.947.03.149.041.3.058.506l.003.03c.05.63.07.83.125.985.142.4.456.715.857.856.155.056.354.076.984.126l.03.003c.208.016.358.029.506.057.34.068.66.2.948.392.126.085.24.184.398.318l.024.02c.48.409.636.536.784.606a1.404 1.404 0 0 0 1.212 0c.148-.07.304-.197.784-.606l.024-.02c.158-.134.273-.233.398-.317.287-.192.609-.325.947-.392.168-.029.337-.049.507-.058l.03-.003c.63-.05.829-.07.984-.125.4-.142.715-.456.856-.857.056-.155.076-.355.127-.984l.002-.03c.01-.17.029-.34.058-.507.067-.338.2-.66.392-.947.084-.126.183-.24.317-.398l.02-.024c.409-.48.536-.637.607-.784a1.406 1.406 0 0 0 0-1.212c-.07-.148-.198-.304-.607-.785l-.02-.024c-.134-.157-.233-.272-.317-.397a2.609 2.609 0 0 1-.392-.948 4.403 4.403 0 0 1-.058-.506l-.002-.03c-.05-.63-.072-.829-.126-.984a1.403 1.403 0 0 0-.857-.856c-.155-.056-.355-.076-.984-.127l-.03-.002a4.457 4.457 0 0 1-.507-.058 2.61 2.61 0 0 1-.947-.392c-.125-.084-.24-.183-.398-.317l-.024-.02c-.48-.409-.636-.536-.784-.607Z" fill="currentColor"/><path fill-rule="evenodd" clip-rule="evenodd" d="M11.335 5.665a.603.603 0 0 1 0 .852l-4.817 4.817a.603.603 0 0 1-.852-.852l4.817-4.816a.603.603 0 0 1 .852 0Z" fill="currentColor"/><path d="M11.31 10.507a.802.802 0 1 1-1.603.051.802.802 0 0 1 1.604-.05ZM7.298 6.493a.803.803 0 1 1-1.605.05.803.803 0 0 1 1.605-.05Z" fill="currentColor"/></symbol><symbol fill="none" viewBox="0 0 30 30" id="sberbank" xmlns="http://www.w3.org/2000/svg"><path fill="#299D30" d="M24 15.15c0 4.89-4.03 8.85-9 8.85a8.92 8.92 0 0 1-8.98-9.44l5.45 3.08 11.54-6.52a8.7 8.7 0 0 1 .99 4.04zm-12.53.27L6.4 12.55c-.1.32-.18.64-.25.98l5.32 3 11.05-6.24a9.25 9.25 0 0 0-.6-.78l-10.45 5.9zm9.77-6.64a9.04 9.04 0 0 0-.79-.66l-8.98 5.07-4.29-2.42a8.73 8.73 0 0 0-.44.86l4.73 2.68 9.77-5.53zm-9.77 3.3 8.07-4.56A9.06 9.06 0 0 0 18.5 7l-7.02 3.97L8.34 9.2c-.22.24-.43.5-.62.76l3.75 2.12z"/></symbol><symbol viewBox="0 0 19 18" id="search" xmlns="http://www.w3.org/2000/svg"><path d="M7.186 0a6.686 6.686 0 0 1 6.685 6.686 6.702 6.702 0 0 1-1.604 4.35l.278.278h.812l5.143 5.143L16.957 18l-5.143-5.143v-.812l-.277-.278a6.702 6.702 0 0 1-4.351 1.604A6.686 6.686 0 0 1 7.186 0Zm0 2.057a4.61 4.61 0 0 0-4.629 4.629 4.61 4.61 0 0 0 4.629 4.628 4.61 4.61 0 0 0 4.628-4.628 4.61 4.61 0 0 0-4.628-4.629Z"/></symbol><symbol fill="none" viewBox="0 0 16 16" id="share" xmlns="http://www.w3.org/2000/svg"><path d="M2.666 8v5.334a1.333 1.333 0 0 0 1.333 1.333h8a1.333 1.333 0 0 0 1.334-1.333V8m-2.667-4L7.999 1.333m0 0L5.333 4m2.666-2.667V10" stroke="currentColor" stroke-linecap="round" stroke-linejoin="round"/></symbol><symbol viewBox="0 0 16 16" id="social" xmlns="http://www.w3.org/2000/svg"><path d="M12.74 11.315c-.6 0-1.137.241-1.548.619L5.558 8.599c.04-.185.071-.37.071-.563 0-.193-.031-.378-.07-.562l5.57-3.303c.426.402.987.65 1.612.65a2.35 2.35 0 0 0 1.676-.705 2.432 2.432 0 0 0 .694-1.705c0-.64-.25-1.253-.694-1.705A2.35 2.35 0 0 0 12.74 0a2.35 2.35 0 0 0-1.677.706 2.432 2.432 0 0 0-.694 1.705c0 .193.032.378.071.562L4.87 6.276a2.339 2.339 0 0 0-1.612-.65 2.35 2.35 0 0 0-1.676.705 2.432 2.432 0 0 0-.694 1.705c0 .64.25 1.253.694 1.705a2.35 2.35 0 0 0 1.676.706c.624 0 1.185-.25 1.612-.65l5.626 3.334c-.04.169-.064.346-.064.53 0 1.294 1.035 2.339 2.308 2.339 1.272 0 2.307-1.045 2.307-2.338 0-.623-.243-1.22-.676-1.66a2.287 2.287 0 0 0-1.631-.687z"/></symbol><symbol viewBox="0 0 10 10" id="sorting" xmlns="http://www.w3.org/2000/svg"><path d="M10 8v2H0V8h10zM8 4v2H0V4h8zM6 2V0H0v2h6z"/></symbol><symbol viewBox="0 0 60 60" id="spinner" xmlns="http://www.w3.org/2000/svg"><path d="M30 55C16.25 55 5 43.75 5 30S16.25 5 30 5c3 0 5.75.5 8.5 1.5l1.75-4.75C37 .5 33.5 0 30 0 13.5 0 0 13.5 0 30s13.5 30 30 30 30-13.5 30-30h-5c0 13.75-11.25 25-25 25z"/></symbol><symbol viewBox="0 0 127 119" id="subscribe" xmlns="http://www.w3.org/2000/svg"><path d="M11.33 119h104.172c6.35 0 11.498-5.164 11.498-11.532V47.742c0-3.958-2.059-7.573-5.148-9.638l-12.014-8.262v-4.475c0-5.336-4.29-9.639-9.782-9.639H89.588l-.172-.172L69.68 1.786c-3.775-2.41-8.409-2.41-12.356.172l-19.05 13.254c-.343.172-.514.344-.686.688h-10.64c-5.32 0-9.782 4.303-9.782 9.639v4.475L5.324 38.276c-3.432 2.065-5.32 5.68-5.32 9.638v59.898C-.167 113.836 4.981 119 11.331 119zm3.09-6.885 47.194-40.276c.858-.86 2.231-.86 3.261 0l47.366 40.276H14.42zm95.247-74.011 8.237 5.68c1.202.688 1.888 1.893 2.06 3.27l-10.297 9.122V38.104zm10.297 18.072v51.464c0 .689-.172 1.205-.343 1.893L89.245 83.715l30.719-27.539zM60.928 7.638c1.544-.86 3.432-.86 4.805-.172l11.842 8.262H49.086l11.842-8.09zm-37.07 17.729c0-1.55 1.202-2.754 2.918-2.754h73.28c1.545 0 2.918 1.205 2.918 2.754V62.2L84.096 79.068 69.509 66.676c-3.433-2.927-8.581-2.927-12.185 0L42.737 79.067 23.859 62.2V25.367zM8.929 43.784l8.066-5.68v17.9L6.87 46.882c.171-1.205.858-2.41 2.06-3.098zm-2.23 12.392 30.718 27.367L7.04 109.361c-.171-.516-.343-1.205-.343-1.893V56.176z" fill-opacity=".15"/><path d="M41.02 41.546h44.62c1.888 0 3.433-1.55 3.433-3.443s-1.545-3.442-3.432-3.442H41.02c-1.888 0-3.433 1.55-3.433 3.442 0 1.894 1.545 3.443 3.432 3.443zm48.053 12.049c0-1.894-1.545-3.443-3.432-3.443H41.02c-1.888 0-3.433 1.55-3.433 3.443s1.545 3.442 3.432 3.442h44.62a3.448 3.448 0 0 0 3.433-3.442z" fill-opacity=".15"/></symbol><symbol fill="none" viewBox="0 0 17 17" id="tag" xmlns="http://www.w3.org/2000/svg"><path d="m11.296 3.587-2.753.588-6.683 6.683 5.141 5.14 6.683-6.682.588-2.753-2.976-2.976Z" stroke="currentColor" stroke-linejoin="round"/><circle cx="10.214" cy="7.645" r="1.317" transform="rotate(45 10.214 7.645)" stroke="currentColor"/><path d="m6.039 9.25 2.57 2.57M5.075 10.215l2.57 2.57" stroke="currentColor" stroke-linecap="round"/><path d="M10.884 1.075c-2.867 2.092 1.493 5.104-.862 6.319" stroke="currentColor" stroke-linecap="round" stroke-linejoin="round"/></symbol><symbol fill="none" viewBox="0 0 24 24" id="telegram" xmlns="http://www.w3.org/2000/svg"><path d="M12 0a11.999 11.999 0 0 0-8.484 20.485 11.999 11.999 0 1 0 16.968-16.97A11.999 11.999 0 0 0 12 0Z" fill="#2AABEE"/><path d="M5.432 11.873a583.983 583.983 0 0 1 6.997-3.014c3.334-1.386 4.026-1.627 4.478-1.635.1-.002.32.023.465.14.12.098.154.23.17.324.015.094.036.307.02.473-.18 1.897-.963 6.502-1.36 8.627-.167.9-.499 1.2-.82 1.23-.697.064-1.226-.46-1.9-.902-1.056-.693-1.653-1.124-2.678-1.8-1.185-.78-.417-1.21.258-1.91.177-.184 3.248-2.977 3.306-3.23.008-.032.015-.15-.056-.212-.07-.063-.173-.041-.248-.024-.107.024-1.792 1.139-5.062 3.345-.478.329-.911.49-1.301.48-.428-.008-1.253-.241-1.866-.44-.75-.245-1.348-.374-1.296-.789.027-.216.325-.437.893-.663Z" fill="#fff"/></symbol><symbol viewBox="0 0 22 20" id="thumb-up" xmlns="http://www.w3.org/2000/svg"><path d="M22 9a2 2 0 0 0-2-2h-6.32l.96-4.57c.02-.1.03-.21.03-.32 0-.41-.17-.79-.44-1.06L13.17 0 6.59 6.58C6.22 6.95 6 7.45 6 8v10a2 2 0 0 0 2 2h9c.83 0 1.54-.5 1.84-1.22l3.02-7.05c.09-.23.14-.47.14-.73V9zM0 20h4V8H0v12z"/></symbol><symbol viewBox="0 0 18 18" id="time" xmlns="http://www.w3.org/2000/svg"><path d="M9 16.2A7.2 7.2 0 1 0 9 1.8a7.2 7.2 0 0 0 0 14.4zM9 0a9 9 0 0 1 0 18c-4.977 0-9-4.05-9-9a9 9 0 0 1 9-9zm.45 4.5v4.725l4.05 2.403-.675 1.107L8.1 9.9V4.5h1.35z"/></symbol><symbol viewBox="0 0 14 18" id="trash" xmlns="http://www.w3.org/2000/svg"><path d="M14 1h-3.5l-1-1h-5l-1 1H0v2h14V1zM1 16a2 2 0 0 0 2 2h8a2 2 0 0 0 2-2V4H1v12z"/></symbol><symbol fill="none" viewBox="0 0 24 24" id="trash_alt" xmlns="http://www.w3.org/2000/svg"><path d="M4 7h16M5 7l1 12a2 2 0 0 0 2 2h8a2 2 0 0 0 2-2l1-12M9 7V4a1 1 0 0 1 1-1h4a1 1 0 0 1 1 1v3" stroke="currentColor" stroke-width="2" stroke-linecap="round" stroke-linejoin="round"/></symbol><symbol viewBox="0 0 18 18" id="tune" xmlns="http://www.w3.org/2000/svg"><path d="M0 14v2h6v-2H0zM0 2v2h10V2H0zm10 16v-2h8v-2h-8v-2H8v6h2zM4 6v2H0v2h4v2h2V6H4zm14 4V8H8v2h10zm-6-4h2V4h4V2h-4V0h-2v6z"/></symbol><symbol viewBox="0 0 18 15" id="twitter" xmlns="http://www.w3.org/2000/svg"><path d="M17.382 2.42a6.915 6.915 0 0 1-1.991.546 3.475 3.475 0 0 0 1.524-1.917 6.938 6.938 0 0 1-2.2.84 3.466 3.466 0 0 0-5.906 3.162A9.839 9.839 0 0 1 1.663 1.43a3.466 3.466 0 0 0 1.072 4.627 3.441 3.441 0 0 1-1.57-.433v.044c0 1.68 1.196 3.08 2.781 3.398a3.454 3.454 0 0 1-1.565.06 3.47 3.47 0 0 0 3.238 2.407 6.954 6.954 0 0 1-5.132 1.435A9.804 9.804 0 0 0 5.8 14.525c6.375 0 9.861-5.28 9.861-9.861 0-.15-.003-.3-.01-.448a7.028 7.028 0 0 0 1.73-1.794z"/></symbol><symbol viewBox="4 4 24 24" id="user" xmlns="http://www.w3.org/2000/svg"><path d="M16 5a5 5 0 1 1 0 10 5 5 0 0 1 0-10Zm0 15c3.194 0 6.034.649 8.039 1.651C26.104 22.684 27 23.925 27 25v2H5v-2c0-1.075.896-2.316 2.961-3.349C9.966 20.65 12.806 20 16 20Z" stroke="currentColor" stroke-width="2"/></symbol><symbol fill="none" viewBox="0 0 18 18" id="viber" xmlns="http://www.w3.org/2000/svg"><rect width="18" height="18" fill="#7B519D" rx="3"/><path fill="#fff" fill-rule="evenodd" d="M13.2 11.13c-.3-.25-.63-.47-.95-.7-.64-.45-1.23-.49-1.71.24-.27.4-.65.43-1.04.25a4.61 4.61 0 0 1-2.42-2.36c-.22-.49-.21-.93.3-1.27.26-.18.54-.4.51-.8-.02-.52-1.29-2.26-1.79-2.44a.9.9 0 0 0-.62 0c-1.17.39-1.66 1.35-1.2 2.5a12.96 12.96 0 0 0 7.19 7.2c.19.09.4.12.5.15.77 0 1.67-.73 1.93-1.46.24-.7-.28-.98-.7-1.31zM9.44 4.4c2.45.37 3.58 1.54 3.9 4.01.03.23-.06.57.27.58.34 0 .26-.33.26-.56.03-2.33-2-4.49-4.36-4.57-.18.03-.54-.12-.57.28-.01.27.3.22.5.26z" clip-rule="evenodd"/><path fill="#fff" fill-rule="evenodd" d="M9.92 5.07c-.24-.02-.55-.14-.6.2-.06.34.29.3.51.35 1.52.34 2.04.89 2.3 2.4.03.21-.04.55.33.5.28-.05.18-.34.2-.5.01-1.45-1.23-2.77-2.74-2.95z" clip-rule="evenodd"/><path fill="#fff" fill-rule="evenodd" d="M10.06 6.25c-.16 0-.31.02-.37.2-.09.24.1.3.28.33.62.1.95.47 1.01 1.1.02.16.13.3.29.28.22-.03.24-.23.24-.42 0-.7-.78-1.5-1.45-1.49z" clip-rule="evenodd"/></symbol><symbol fill="none" viewBox="0 0 472 139" id="viber-big" xmlns="http://www.w3.org/2000/svg"><rect x="1" y="1" width="470" height="137" rx="9" fill="#fff" stroke="#8E24AA" stroke-width="2"/><path d="M179.363 49h-1.992v-8.063h-9.023V49h-1.993V31.867h1.993v7.29h9.023v-7.29h1.992V49Zm12.317 0-.387-1.828h-.094c-.64.805-1.281 1.351-1.922 1.64-.632.282-1.425.422-2.379.422-1.273 0-2.273-.328-3-.984-.718-.656-1.078-1.59-1.078-2.8 0-2.595 2.075-3.954 6.223-4.079l2.18-.07v-.797c0-1.008-.219-1.75-.657-2.227-.429-.484-1.121-.726-2.074-.726-1.07 0-2.281.328-3.633.984l-.597-1.488a9.164 9.164 0 0 1 2.074-.809 9.08 9.08 0 0 1 2.273-.293c1.532 0 2.664.34 3.399 1.02.742.68 1.113 1.77 1.113 3.27V49h-1.441Zm-4.395-1.371c1.211 0 2.16-.332 2.848-.996.695-.664 1.043-1.594 1.043-2.79v-1.16l-1.946.083c-1.546.054-2.664.297-3.351.726-.68.422-1.02 1.082-1.02 1.98 0 .704.211 1.239.633 1.606.43.367 1.028.55 1.793.55ZM199.086 49h-1.945V36.156h10.781V49h-1.969V37.844h-6.867V49Zm14.789-12.844v8.145l-.082 2.133-.035.668 6.949-10.946h2.426V49h-1.817v-7.852l.036-1.546.058-1.524L214.473 49h-2.426V36.156h1.828Zm22.957 11.168h5.695V36.156h1.969V49h-17.238V36.156h1.945v11.168h5.684V36.156h1.945v11.168Zm13.629-11.168v8.145l-.082 2.133-.035.668 6.949-10.946h2.426V49h-1.817v-7.852l.036-1.546.058-1.524L251.059 49h-2.426V36.156h1.828Zm22.043 1.664h-4.172V49h-1.945V37.82h-4.125v-1.664h10.242v1.664Zm7.734 11.414c-1.898 0-3.398-.578-4.5-1.734-1.093-1.156-1.64-2.762-1.64-4.816 0-2.07.507-3.715 1.523-4.934 1.024-1.219 2.395-1.828 4.113-1.828 1.61 0 2.883.531 3.821 1.594.937 1.054 1.406 2.449 1.406 4.183v1.23h-8.848c.039 1.508.418 2.653 1.137 3.434.727.782 1.746 1.172 3.059 1.172 1.382 0 2.75-.289 4.101-.867v1.734a9.937 9.937 0 0 1-1.957.633c-.609.133-1.348.2-2.215.2Zm-.527-11.683c-1.031 0-1.856.336-2.473 1.008-.609.672-.968 1.601-1.078 2.789h6.715c0-1.227-.273-2.164-.82-2.813-.547-.656-1.328-.984-2.344-.984Zm16.758-1.395v5.38h7.195v-5.38h1.945V49h-1.945v-5.79h-7.195V49h-1.946V36.156h1.946ZM317.633 49l-.387-1.828h-.094c-.64.805-1.281 1.351-1.922 1.64-.632.282-1.425.422-2.378.422-1.274 0-2.274-.328-3-.984-.719-.656-1.079-1.59-1.079-2.8 0-2.595 2.075-3.954 6.223-4.079l2.18-.07v-.797c0-1.008-.219-1.75-.656-2.227-.43-.484-1.122-.726-2.075-.726-1.07 0-2.281.328-3.633.984l-.597-1.488a9.164 9.164 0 0 1 2.074-.809 9.08 9.08 0 0 1 2.273-.293c1.532 0 2.665.34 3.399 1.02.742.68 1.113 1.77 1.113 3.27V49h-1.441Zm-4.395-1.371c1.211 0 2.16-.332 2.848-.996.695-.664 1.043-1.594 1.043-2.79v-1.16l-1.945.083c-1.547.054-2.664.297-3.352.726-.68.422-1.02 1.082-1.02 1.98 0 .704.211 1.239.633 1.606.43.367 1.028.55 1.793.55Zm16.524-.504.363-1.09.504-1.383 3.48-8.472h2.473V49h-1.723V38.395l-.234.68-.68 1.792L330.629 49H329l-3.316-8.156c-.414-1.047-.7-1.864-.856-2.45V49h-1.734V36.18h2.379l3.363 8.144c.336.86.644 1.793.926 2.801Zm27.633-7.746c0 .836-.243 1.473-.727 1.91-.477.43-1.148.719-2.016.867v.106c1.094.148 1.891.468 2.391.96.508.493.762 1.172.762 2.04 0 1.195-.442 2.117-1.325 2.765-.875.649-2.156.973-3.843.973h-5.66V36.156h5.636c3.188 0 4.782 1.075 4.782 3.223Zm-1.536 5.754c0-.696-.265-1.2-.797-1.512-.523-.32-1.394-.48-2.613-.48h-3.527v4.23h3.574c2.242 0 3.363-.746 3.363-2.238Zm-.363-5.567c0-.625-.242-1.066-.726-1.324-.477-.265-1.204-.398-2.18-.398h-3.668v3.62h3.293c1.203 0 2.051-.148 2.543-.444.492-.297.738-.782.738-1.454Z" fill="#224040"/><path d="M193.339 65.737h8.406L188.397 105h-9.077L166 65.737h8.406l7.385 23.365c.412 1.378.833 2.99 1.262 4.834.448 1.826.725 3.097.833 3.813.197-1.647.868-4.53 2.014-8.647l7.439-23.365Zm12.38 1.477c0-2.667 1.486-4.001 4.458-4.001 2.972 0 4.458 1.334 4.458 4.001 0 1.272-.376 2.265-1.128 2.981-.734.699-1.844 1.048-3.33 1.048-2.972 0-4.458-1.343-4.458-4.029Zm8.54 37.786h-8.191V74.976h8.191V105Zm25.325-30.588c3.545 0 6.32 1.387 8.325 4.162 2.005 2.757 3.008 6.544 3.008 11.36 0 4.96-1.038 8.8-3.115 11.521-2.059 2.721-4.87 4.082-8.433 4.082-3.527 0-6.293-1.28-8.298-3.84h-.564l-1.37 3.303h-6.257V63.213h8.191v9.722c0 1.235-.108 3.213-.322 5.935h.322c1.915-2.972 4.753-4.458 8.513-4.458Zm-2.632 6.552c-2.023 0-3.5.627-4.431 1.88-.931 1.236-1.414 3.286-1.45 6.15v.886c0 3.223.474 5.533 1.423 6.93.967 1.396 2.489 2.094 4.566 2.094 1.683 0 3.016-.77 4.001-2.31 1.003-1.557 1.504-3.813 1.504-6.767s-.501-5.165-1.504-6.634c-1.003-1.486-2.372-2.229-4.109-2.229Zm33.167-.725c-1.737 0-3.098.555-4.082 1.665-.985 1.092-1.549 2.65-1.692 4.673h11.494c-.036-2.023-.564-3.58-1.585-4.673-1.02-1.11-2.399-1.665-4.135-1.665Zm1.154 25.298c-4.834 0-8.611-1.334-11.333-4.001-2.721-2.668-4.082-6.446-4.082-11.333 0-5.031 1.254-8.916 3.76-11.656 2.525-2.757 6.007-4.135 10.447-4.135 4.243 0 7.546 1.208 9.91 3.625 2.363 2.417 3.545 5.756 3.545 10.017v3.975h-19.363c.089 2.327.779 4.145 2.068 5.452 1.289 1.306 3.097 1.96 5.424 1.96 1.809 0 3.518-.188 5.13-.564 1.611-.376 3.294-.976 5.049-1.8v6.339a18.825 18.825 0 0 1-4.593 1.584c-1.629.358-3.616.537-5.962.537Zm35.665-31.125c1.11 0 2.032.08 2.766.241l-.618 7.681c-.662-.18-1.468-.269-2.417-.269-2.614 0-4.655.672-6.123 2.015-1.45 1.342-2.175 3.222-2.175 5.64V105h-8.191V74.976h6.203l1.209 5.048h.403c.931-1.683 2.184-3.034 3.759-4.055 1.594-1.038 3.322-1.557 5.184-1.557Z" fill="#304848"/><path d="M78 121c27.062 0 49-21.938 49-49s-21.938-49-49-49-49 21.938-49 49 21.938 49 49 49Z" fill="#8E24AA"/><path d="M103.716 76.027c1.701-14.314-.817-23.35-5.358-27.438l.002-.002c-7.329-6.98-32.081-8.014-40.85.313-3.937 4.073-5.324 10.051-5.476 17.452-.152 7.402-.333 21.27 12.59 25.032h.011l-.011 5.745s-.088 2.328 1.398 2.795c1.701.552 2.47-.53 7.76-6.847 8.844.767 15.637-.99 16.409-1.246 1.785-.599 11.891-1.936 13.525-15.804ZM74.653 89.035s-5.598 6.98-7.339 8.792c-.57.59-1.194.535-1.185-.634 0-.767.043-9.538.043-9.538-10.956-3.14-10.31-14.948-10.191-21.125.119-6.18 1.25-11.241 4.584-14.65 7.692-7.212 29.393-5.6 34.922-.403 6.759 5.992 4.353 22.921 4.367 23.498-1.389 11.576-9.578 12.31-11.084 12.81-.643.215-6.617 1.751-14.117 1.25Z" fill="#fff"/><path d="M77.75 53.237c-.914 0-.914 1.425 0 1.437 7.094.054 12.937 4.999 13.001 14.07 0 .956 1.401.944 1.39-.013h-.003c-.076-9.773-6.455-15.44-14.388-15.494Z" fill="#fff"/><path d="M87.082 67.24c-.022.945 1.377.99 1.389.033.116-5.389-3.206-9.828-9.45-10.296-.915-.066-1.01 1.37-.097 1.437 5.414.411 8.267 4.107 8.158 8.826ZM85.585 73.37c-1.173-.68-2.367-.257-2.861.41l-1.034 1.338c-.525.679-1.505.589-1.505.589-7.159-1.893-9.073-9.384-9.073-9.384s-.088-1.014.568-1.558l1.292-1.069c.646-.513 1.054-1.748.396-2.961-1.757-3.176-2.938-4.27-3.538-5.111-.632-.791-1.582-.97-2.57-.435h-.022c-2.054 1.202-4.303 3.45-3.583 5.767 1.227 2.441 3.484 10.224 10.675 16.104 3.38 2.781 8.728 5.632 10.999 6.29l.021.033c2.238.745 4.413-1.592 5.574-3.708v-.016c.516-1.024.345-1.993-.408-2.627-1.335-1.302-3.349-2.739-4.93-3.662Z" fill="#fff"/><path d="M80 62.278c2.282.133 3.388 1.326 3.507 3.774.043.957 1.432.89 1.39-.066-.152-3.197-1.82-4.978-4.822-5.145-.914-.054-1 1.383-.076 1.437Z" fill="#fff"/></symbol><symbol fill="none" viewBox="0 0 30 30" id="visa" xmlns="http://www.w3.org/2000/svg"><path fill="#fff" d="M12.88 18.48h-1.86l1.17-6.96h1.86l-1.17 6.96zm-3.42-6.96-1.78 4.79-.2-1.03-.63-3.13s-.08-.63-.88-.63H3.03l-.03.12s.9.18 1.95.8l1.61 6.04H8.5l2.96-6.96h-2zm14.63 6.96h1.71l-1.49-6.96h-1.5c-.68 0-.85.52-.85.52l-2.78 6.44h1.94l.39-1.03h2.36l.22 1.03zm-2.05-2.46.98-2.6.55 2.6h-1.53zm-2.71-2.82.26-1.5s-.82-.3-1.67-.3c-.92 0-3.12.4-3.12 2.3 0 1.8 2.58 1.82 2.58 2.77 0 .94-2.31.77-3.07.18l-.28 1.56s.83.39 2.1.39 3.18-.64 3.18-2.38c0-1.81-2.6-1.98-2.6-2.76 0-.8 1.82-.69 2.62-.26z"/><path fill="#E6A540" d="m7.47 15.23-.62-3.09s-.08-.62-.88-.62H3.03l-.03.12s1.41.28 2.76 1.33c1.3 1 1.72 2.26 1.72 2.26z"/></symbol><symbol fill="none" viewBox="0 0 24 24" id="vk" xmlns="http://www.w3.org/2000/svg"><path d="M0 11.52c0-5.43 0-8.146 1.687-9.833C3.374 0 6.09 0 11.52 0h.96c5.43 0 8.146 0 9.833 1.687C24 3.374 24 6.09 24 11.52v.96c0 5.43 0 8.146-1.687 9.833C20.626 24 17.91 24 12.48 24h-.96c-5.43 0-8.146 0-9.833-1.687C0 20.626 0 17.91 0 12.48v-.96Z" fill="#07F"/><path d="M12.77 17.29c-5.47 0-8.59-3.75-8.72-9.99h2.74c.09 4.58 2.11 6.52 3.71 6.92V7.3h2.58v3.95c1.58-.17 3.24-1.97 3.8-3.95h2.58c-.43 2.44-2.23 4.24-3.51 4.98 1.28.6 3.33 2.17 4.11 5.01h-2.84c-.61-1.9-2.13-3.37-4.14-3.57v3.57h-.31Z" fill="#fff"/></symbol><symbol viewBox="0 0 20 11" id="vk-classic" xmlns="http://www.w3.org/2000/svg"><path fill-rule="evenodd" clip-rule="evenodd" d="M9.953 10.86h1.138s.343-.038.519-.227c.161-.174.156-.5.156-.5s-.022-1.527.687-1.752c.699-.222 1.596 1.476 2.547 2.128.719.494 1.265.386 1.265.386l2.543-.035s1.33-.082.7-1.128c-.053-.086-.368-.774-1.891-2.188-1.595-1.48-1.381-1.24.54-3.8 1.169-1.559 1.637-2.51 1.49-2.918-.139-.388-.999-.286-.999-.286l-2.863.018s-.212-.029-.37.065c-.153.093-.252.308-.252.308s-.454 1.206-1.058 2.232c-1.275 2.165-1.784 2.279-1.993 2.144-.484-.313-.363-1.258-.363-1.93 0-2.097.318-2.972-.62-3.198-.311-.076-.54-.125-1.336-.133-1.021-.01-1.886.003-2.376.243-.325.16-.577.515-.423.535.189.025.617.115.844.425.294.399.284 1.295.284 1.295s.168 2.47-.394 2.777c-.386.21-.915-.22-2.052-2.183A18.257 18.257 0 0 1 4.654 1.02S4.569.812 4.418.7a1.186 1.186 0 0 0-.44-.177l-2.72.018S.849.552.699.73c-.133.158-.01.485-.01.485s2.13 4.982 4.541 7.494c2.211 2.302 4.723 2.15 4.723 2.15z"/></symbol><symbol viewBox="0 0 18 13" id="watch" xmlns="http://www.w3.org/2000/svg"><path d="M9 3.682A2.454 2.454 0 1 1 9 8.59a2.454 2.454 0 0 1 0-4.91ZM9 0c4.09 0 7.584 2.545 9 6.136-1.416 3.592-4.91 6.137-9 6.137S1.415 9.728 0 6.136C1.415 2.545 4.91 0 9 0ZM1.784 6.136a8.035 8.035 0 0 0 14.432 0 8.035 8.035 0 0 0-14.432 0Z"/></symbol><symbol fill="none" viewBox="0 0 50 5" id="webasyst" xmlns="http://www.w3.org/2000/svg"><circle cx="2.5" cy="2.5" r="2.5" fill="#FE300F"/><circle cx="11.5" cy="2.5" r="2.5" fill="#25B2FE"/><circle cx="20.5" cy="2.5" r="2.5" fill="#F2DB47"/><circle cx="29.5" cy="2.5" r="2.5" fill="#F5769E"/><circle cx="38.5" cy="2.5" r="2.5" fill="#9DDB39"/><circle cx="47.5" cy="2.5" r="2.5" fill="#4ACED0"/></symbol><symbol fill="none" viewBox="0 0 30 30" id="webmoney" xmlns="http://www.w3.org/2000/svg"><path fill="#036CB5" d="M14.96 6a8.98 8.98 0 0 1 4.5 1.2l-.82.74-1.23-1.29-2.13 1.9-1.25-1.36-3.9 3.52 2.5 2.77-.98.86 2.47 2.77-.98.86 3.53 3.93 2.09-1.92 1.82 2.06c-.36.28-.76.55-1.19.8A8.92 8.92 0 0 1 14.97 24a9 9 0 0 1-.01-18zm-1.65 8.44 2.14-1.92 1.92 2.15-2.14 1.92-1.92-2.15zm1.53 3.72 2.12-1.95 1.94 2.15-2.14 1.93-1.92-2.13zm-3.05-7.38 2.14-1.93L15.85 11l-2.14 1.93-1.92-2.15zm3.92-1.03 1.6-1.45 1.43 1.6-1.59 1.46-1.44-1.61zm2.84 6.62 1.6-1.45 1.44 1.62-1.6 1.44-1.43-1.61zm1.4 3.25 1.6-1.45 1.44 1.6-1.6 1.46-1.43-1.61zm.66-7.43 1.06-.96.96 1.06-1.06.96-.96-1.06zM19.24 9l1.06-.98.96 1.08-1.06.96L19.24 9zm2.72 6.36 1.06-.96.98 1.06-1.08.97-.96-1.07zm-4.78-2.39 1.6-1.44 1.44 1.6-1.6 1.44-1.44-1.6z"/></symbol><symbol fill="none" viewBox="0 0 24 24" id="whatsapp" xmlns="http://www.w3.org/2000/svg"><path d="M.1 11.892c0 2.096.55 4.142 1.595 5.945L0 24l6.335-1.654a11.986 11.986 0 0 0 5.71 1.448h.005c6.586 0 11.947-5.335 11.95-11.893a11.791 11.791 0 0 0-3.497-8.413A11.901 11.901 0 0 0 12.05 0C5.463 0 .103 5.335.1 11.892Z" fill="#60D669"/><path d="M9.085 7.519c-.223-.494-.459-.503-.671-.512C8.239 6.999 8.04 7 7.84 7c-.199 0-.522.074-.796.37C6.771 7.668 6 8.385 6 9.842c0 1.458 1.07 2.867 1.22 3.065.148.197 2.065 3.284 5.1 4.472 2.522.986 3.035.79 3.582.74.548-.049 1.767-.716 2.016-1.408.249-.691.249-1.284.174-1.408-.075-.124-.274-.198-.572-.346-.299-.148-1.767-.865-2.04-.964-.274-.099-.473-.148-.672.149-.2.296-.771.963-.946 1.16-.174.199-.348.223-.646.075-.3-.148-1.26-.46-2.402-1.47-.887-.785-1.487-1.755-1.66-2.052-.175-.296-.02-.456.13-.604.134-.133.299-.346.448-.519.15-.173.199-.296.299-.494.1-.198.05-.37-.025-.519-.075-.148-.655-1.613-.92-2.2Z" fill="#fff"/></symbol><symbol fill="none" viewBox="0 0 25 24" id="whatsapp-outlined" xmlns="http://www.w3.org/2000/svg"><path d="M.965 11.856c0 2.017.526 3.986 1.528 5.721L.87 23.507l6.068-1.591a11.442 11.442 0 0 0 5.47 1.392h.005c6.308 0 11.444-5.133 11.446-11.443a11.372 11.372 0 0 0-3.35-8.095A11.374 11.374 0 0 0 12.413.414C6.102.414.968 5.547.965 11.856" fill="#60D669"/><path d="M.557 11.853c-.001 2.089.545 4.128 1.582 5.926L.457 23.92l6.286-1.648a11.852 11.852 0 0 0 5.666 1.442h.005c6.535 0 11.854-5.317 11.857-11.853a11.782 11.782 0 0 0-3.47-8.386A11.783 11.783 0 0 0 12.414 0C5.878 0 .559 5.317.557 11.853ZM4.3 17.469l-.235-.373a9.826 9.826 0 0 1-1.506-5.243c.002-5.432 4.422-9.851 9.859-9.851a9.792 9.792 0 0 1 6.967 2.89 9.792 9.792 0 0 1 2.884 6.97c-.002 5.432-4.423 9.851-9.855 9.851h-.004a9.844 9.844 0 0 1-5.016-1.373l-.36-.213-3.73.978.996-3.636Z" fill="#fff"/><path d="M9.45 6.898c-.222-.494-.455-.504-.667-.512-.172-.008-.37-.007-.567-.007-.198 0-.519.074-.79.37-.272.297-1.037 1.014-1.037 2.471 0 1.458 1.061 2.867 1.21 3.064.148.198 2.049 3.285 5.06 4.472 2.503.987 3.012.791 3.555.741.544-.049 1.753-.716 2-1.408.247-.691.247-1.284.173-1.408-.074-.124-.271-.198-.568-.346-.296-.148-1.753-.865-2.024-.964-.272-.099-.47-.148-.667.149-.198.296-.765.963-.938 1.16-.173.199-.345.223-.642.075-.296-.149-1.25-.46-2.382-1.47-.881-.785-1.476-1.755-1.648-2.052-.173-.296-.019-.457.13-.604.133-.133.296-.346.444-.52.148-.172.197-.296.296-.493.099-.198.05-.37-.024-.52-.075-.147-.65-1.613-.914-2.198Z" fill="#fff"/></symbol><symbol fill="none" viewBox="0 0 20 20" id="yandex-map" xmlns="http://www.w3.org/2000/svg"><path fill="#FFDF5E" d="M10.7 9.33 20 0 0 8.1l10.7 1.23z"/><path fill="#FC0" d="M10.7 9.33 11.93 20 20 0l-9.3 9.33z"/><path fill="#EBA704" d="M10.7 9.33 0 8.11l8.18 3.75L11.93 20 10.7 9.33z"/></symbol><symbol fill="none" viewBox="0 0 30 30" id="yandex-money" xmlns="http://www.w3.org/2000/svg"><path fill="#FFCF01" d="M7 13.93c0-1.13.1-1.84 2.55-3.58A616.1 616.1 0 0 0 18.06 4v8.2H23V24H8.54C7.7 24 7 23.34 7 22.53v-8.6z"/><path fill="#D3AB07" d="M18.05 12.2v4.76L9 22.83l11.46-3.55V12.2h-2.4z"/><path fill="#000" d="M13.91 11.96c.53-.6 1.3-.81 1.73-.47.43.33.34 1.1-.19 1.7-.53.6-1.3.81-1.73.48-.42-.35-.34-1.11.2-1.7z"/></symbol><symbol viewBox="0 0 68 48" id="youtube-play-btn" xmlns="http://www.w3.org/2000/svg"><path d="M66.52 7.74c-.78-2.93-2.49-5.41-5.42-6.19C55.79.13 34 0 34 0S12.21.13 6.9 1.55c-2.93.78-4.63 3.26-5.42 6.19C.06 13.05 0 24 0 24s.06 10.95 1.48 16.26c.78 2.93 2.49 5.41 5.42 6.19C12.21 47.87 34 48 34 48s21.79-.13 27.1-1.55c2.93-.78 4.64-3.26 5.42-6.19C67.94 34.95 68 24 68 24s-.06-10.95-1.48-16.26z" fill="currentColor"/><path d="M45 24 27 14v20" fill="#fff"/></symbol></svg>