<!-- icon666.com - MILLIONS vector ICONS FREE --><svg version="1.1" id="Layer_1" xmlns="http://www.w3.org/2000/svg" xmlns:xlink="http://www.w3.org/1999/xlink" x="0px" y="0px" viewBox="0 0 512.001 512.001" style="enable-background:new 0 0 512.001 512.001;" xml:space="preserve"><path style="fill:#E6E6E6;" d="M436.695,0c-5.28,0-9.561,4.281-9.561,9.561v3.603H416.14V9.561c0-5.28-4.281-9.561-9.561-9.561 c-5.28,0-9.561,4.281-9.561,9.561v3.603h-10.994V9.561c0-5.28-4.281-9.561-9.561-9.561c-5.28,0-9.561,4.281-9.561,9.561v3.603 h-10.994V9.561c0-5.28-4.281-9.561-9.561-9.561c-5.28,0-9.561,4.281-9.561,9.561v3.603h-10.994V9.561 c0-5.28-4.281-9.561-9.561-9.561c-5.28,0-9.561,4.281-9.561,9.561v3.603h-10.994V9.561c0-5.28-4.281-9.561-9.561-9.561 c-5.28,0-9.561,4.281-9.561,9.561v3.603h-10.994V9.561c0-5.28-4.281-9.561-9.561-9.561c-5.28,0-9.561,4.281-9.561,9.561v3.603 h-10.994V9.561c0-5.28-4.281-9.561-9.561-9.561s-9.561,4.281-9.561,9.561v3.603H205.33V9.561c0-5.28-4.281-9.561-9.561-9.561 c-5.28,0-9.561,4.281-9.561,9.561v3.603h-10.994V9.561c0-5.28-4.281-9.561-9.561-9.561c-5.28,0-9.561,4.281-9.561,9.561v3.603 h-10.994V9.561c0-5.28-4.281-9.561-9.561-9.561c-5.28,0-9.561,4.281-9.561,9.561v3.603h-10.994V9.561 c0-5.28-4.281-9.561-9.561-9.561s-9.561,4.281-9.561,9.561v3.603H84.867V9.561c0-5.28-4.281-9.561-9.561-9.561 c-5.28,0-9.561,4.281-9.561,9.561v13.164v466.552v13.164c0,5.28,4.281,9.561,9.561,9.561c5.28,0,9.561-4.281,9.561-9.561v-3.603 h10.994v3.603c0,5.28,4.281,9.561,9.561,9.561s9.561-4.281,9.561-9.561v-3.603h10.994v3.603c0,5.28,4.281,9.561,9.561,9.561 c5.28,0,9.561-4.281,9.561-9.561v-3.603h10.994v3.603c0,5.28,4.281,9.561,9.561,9.561c5.28,0,9.561-4.281,9.561-9.561v-3.603h10.994 v3.603c0,5.28,4.281,9.561,9.561,9.561c5.28,0,9.561-4.281,9.561-9.561v-3.603h10.994v3.603c0,5.28,4.281,9.561,9.561,9.561 s9.561-4.281,9.561-9.561v-3.603h10.994v3.603c0,5.28,4.281,9.561,9.561,9.561c5.28,0,9.561-4.281,9.561-9.561v-3.603h10.994v3.603 c0,5.28,4.281,9.561,9.561,9.561c5.28,0,9.561-4.281,9.561-9.561v-3.603h10.994v3.603c0,5.28,4.281,9.561,9.561,9.561 c5.28,0,9.561-4.281,9.561-9.561v-3.603h10.994v3.603c0,5.28,4.281,9.561,9.561,9.561c5.28,0,9.561-4.281,9.561-9.561v-3.603h10.994 v3.603c0,5.28,4.281,9.561,9.561,9.561c5.28,0,9.561-4.281,9.561-9.561v-3.603h10.994v3.603c0,5.28,4.281,9.561,9.561,9.561 c5.28,0,9.561-4.281,9.561-9.561v-3.603h10.994v3.603c0,5.28,4.281,9.561,9.561,9.561c5.28,0,9.561-4.281,9.561-9.561v-13.164 V22.725V9.561C446.256,4.281,441.977,0,436.695,0z"></path><g><rect x="164.222" y="73.301" style="fill:#808080;" width="183.571" height="19.122"></rect><rect x="164.222" y="379.723" style="fill:#808080;" width="183.571" height="19.122"></rect><rect x="208.763" y="431.99" style="fill:#808080;" width="94.475" height="19.122"></rect><rect x="133.55" y="148.514" style="fill:#808080;" width="244.901" height="19.122"></rect><rect x="133.55" y="253.047" style="fill:#808080;" width="244.901" height="19.122"></rect><rect x="133.55" y="200.78" style="fill:#808080;" width="244.901" height="19.122"></rect><rect x="133.55" y="305.314" style="fill:#808080;" width="244.901" height="19.122"></rect></g></svg>