<svg xmlns="http://www.w3.org/2000/svg" width="512" height="512" viewBox="0 0 300 300" enable-background="new 0 0 300 300"><g><path fill="#fff" d="M289.4 181.85c2.12-9.76 3.26-19.88 3.26-30.27 0-77.92-63.17-141.1-141.1-141.1-8.2 0-16.27.72-24.12 2.08C114.84 4.6 99.92 0 83.92 0 38.72 0 2.1 36.63 2.1 81.82c0 15.1 4.1 29.24 11.24 41.38-1.87 9.17-2.85 18.65-2.85 28.37 0 77.92 63.15 141.1 141.07 141.1 8.83 0 17.46-.83 25.84-2.38 11.53 6.18 24.7 9.7 38.69 9.7 45.17 0 81.8-36.63 81.8-81.82 0-13.05-3.07-25.38-8.5-36.33zM223.92 219c-6.53 9.23-16.17 16.55-28.66 21.75-12.38 5.14-27.2 7.75-44.1 7.75-20.25 0-37.24-3.57-50.5-10.6-9.48-5.12-17.3-12.06-23.23-20.6-6-8.66-9.04-17.24-9.04-25.5 0-5.18 1.98-9.66 5.9-13.33 3.86-3.63 8.8-5.48 14.7-5.48 4.86 0 9.04 1.45 12.44 4.32 3.25 2.75 6.04 6.83 8.28 12.1 2.5 5.7 5.22 10.55 8.1 14.35 2.77 3.67 6.75 6.75 11.83 9.15 5.12 2.42 12 3.65 20.5 3.65 11.66 0 21.22-2.5 28.4-7.4 7.04-4.8 10.45-10.56 10.45-17.6 0-5.58-1.78-9.95-5.44-13.4-3.84-3.58-8.9-6.38-15.06-8.3-6.4-2-15.12-4.15-25.88-6.4-14.6-3.13-27-6.83-36.86-11.02-.04 0-.08-.03-.12-.05-10.12-4.3-18.27-10.27-24.23-17.73-6.05-7.6-9.12-17.1-9.12-28.28 0-10.67 3.22-20.27 9.58-28.56 6.3-8.23 15.52-14.63 27.38-19 11.7-4.34 25.64-6.54 41.4-6.54 12.6 0 23.68 1.46 32.92 4.33 9.3 2.9 17.14 6.8 23.3 11.62 6.2 4.85 10.82 10.04 13.72 15.42 2.93 5.44 4.4 10.86 4.4 16.1 0 5.04-1.93 9.62-5.77 13.6-3.86 4.03-8.73 6.07-14.5 6.07-5.2 0-9.3-1.28-12.14-3.8-2.64-2.33-5.38-5.96-8.42-11.2-3.5-6.68-7.77-11.95-12.66-15.67-4.74-3.6-12.66-5.43-23.55-5.43-10.12 0-18.34 2.03-24.45 6.03-5.88 3.86-8.74 8.28-8.74 13.52 0 3.2.92 5.9 2.8 8.2 2.02 2.46 4.85 4.6 8.42 6.4 3.7 1.86 7.53 3.34 11.36 4.4 3.92 1.08 10.5 2.7 19.52 4.78 9.5 2.04 18.36 4.3 26.42 6.7 1.62.48 3.22.97 4.77 1.46 9.4 3 17.5 6.72 24.13 11.03 6.76 4.4 12.1 10.05 15.9 16.8 3.82 6.77 5.74 15.13 5.74 24.84 0 11.63-3.32 22.23-9.87 31.5z"/></g></svg>