<svg xmlns="http://www.w3.org/2000/svg" fill="#fff" viewBox="0 0 383 403"><path fill="none" d="M-1-1h385v405H-1z"/><path stroke="null" d="M339.1 40c-10-9-50-38-140-39 0 0-106-6-157 41-29 29-39 71-40 123s-2 149 92 175v41s-1 16 10 19c13 4 21-8 33-22l23-26c64 6 114-7 119-9 13-4 87-13 99-111 12-100-6-163-39-192zm11 185c-11 82-70 87-81 90-5 2-48 13-103 9 0 0-40 49-53 62-2 2-4 3-6 2-2 0-2-3-2-7v-67c-80-22-75-105-74-148s9-79 33-103c44-39 133-33 133-33 76 0 112 23 121 30 28 24 42 82 32 165z"/><path d="M236.1 168c-3 0-5-3-5-5-1-17-9-26-26-27a5 5 0 0 1 1-10c22 1 34 14 35 36 0 3-2 5-5 5v1zM262.1 176c-3 0-5-2-5-5 0-17-5-31-15-43a63 63 0 0 0-44-19c-3 0-5-3-5-5 0-3 3-5 5-5 22 2 39 9 51 22 12 14 18 30 18 50 0 3-2 5-5 5zM288.1 187c-2 0-5-3-5-5 0-31-9-55-27-73a94 94 0 0 0-67-26 5 5 0 0 1 0-10c29 0 54 10 74 29s30 46 30 79c1 3-2 6-5 6zm-81 43s7 1 11-4l7-9c4-5 12-8 21-3a208 208 0 0 1 36 26c5 4 6 11 3 18-4 7-9 14-16 20-5 4-11 7-16 7h-2l-7-1c-8-2-21-8-43-20a258 258 0 0 1-53-39h-1v-1a29588 29588 0 0 1-16-17c-8-10-16-22-24-37-12-22-18-35-20-43a22 22 0 0 1-1-9c0-6 3-11 7-16 6-7 13-12 20-16s14-2 18 3a507 507 0 0 0 26 36c5 9 2 17-3 21l-9 7c-5 4-4 11-4 11s14 53 66 66z"/></svg>