<svg xmlns="http://www.w3.org/2000/svg" width="512" height="512" viewBox="0 0 30.667 30.667" enable-background="new 0 0 30.667 30.667"><path fill="#fff" d="M30.67 14.94c0 8.25-6.74 14.94-15.06 14.94-2.63 0-5.1-.68-7.26-1.86L0 30.67l2.72-8.02C1.35 20.4.56 17.75.56 14.95.56 6.68 7.3 0 15.6 0c8.33 0 15.07 6.7 15.07 14.94zM15.6 2.38c-6.97 0-12.65 5.64-12.65 12.56 0 2.75.9 5.3 2.4 7.36L3.8 26.97l4.87-1.55c2 1.3 4.4 2.08 6.96 2.08 7 0 12.67-5.63 12.67-12.56 0-6.92-5.68-12.56-12.66-12.56zm7.6 16c-.08-.15-.33-.24-.7-.43-.36-.18-2.18-1.07-2.5-1.2-.36-.1-.6-.17-.85.2-.24.36-.95 1.2-1.16 1.43-.23.25-.45.28-.8.1-.38-.2-1.57-.57-2.98-1.82-1.1-.97-1.84-2.17-2.06-2.54-.2-.36-.02-.56.17-.74.16-.17.37-.43.55-.64.18-.22.25-.37.37-.6.12-.26.06-.47-.03-.66-.1-.18-.83-1.98-1.14-2.7-.3-.75-.6-.62-.83-.62-.2 0-.46-.03-.7-.03s-.65.08-1 .45-1.28 1.25-1.28 3.06c0 1.8 1.32 3.54 1.5 3.78.2.25 2.56 4.07 6.3 5.53 3.76 1.47 3.76.98 4.44.92.7-.07 2.2-.9 2.5-1.74.3-.86.3-1.6.2-1.75z"/></svg>